<svg width="706" height="677" viewBox="0 0 706 677" fill="none" xmlns="http://www.w3.org/2000/svg">
<g filter="url(#filter0_d_85_158)">
<path d="M367.691 494.47H187.928C185.037 494.431 182.269 493.346 180.178 491.432C178.087 489.519 176.828 486.919 176.655 484.153L160.534 184.974C160.445 183.643 160.643 182.309 161.117 181.055C161.591 179.802 162.33 178.655 163.288 177.688C164.245 176.72 165.401 175.953 166.683 175.434C167.965 174.915 169.345 174.655 170.736 174.671H350.499C353.389 174.706 356.157 175.789 358.248 177.7C360.339 179.611 361.598 182.21 361.772 184.974L377.865 484.153C377.954 485.482 377.756 486.815 377.284 488.068C376.812 489.32 376.076 490.466 375.121 491.434C374.167 492.402 373.014 493.171 371.736 493.694C370.457 494.216 369.08 494.481 367.691 494.47Z" fill="#FFD5A4"/>
<path opacity="0.8" d="M367.691 494.47H187.928C185.037 494.431 182.269 493.346 180.178 491.432C178.087 489.519 176.828 486.919 176.655 484.153L160.534 184.974C160.445 183.643 160.643 182.309 161.117 181.055C161.591 179.802 162.33 178.655 163.288 177.688C164.245 176.72 165.401 175.953 166.683 175.434C167.965 174.915 169.345 174.655 170.736 174.671H350.499C353.389 174.706 356.157 175.789 358.248 177.7C360.339 179.611 361.598 182.21 361.772 184.974L377.865 484.153C377.954 485.482 377.756 486.815 377.284 488.068C376.812 489.32 376.076 490.466 375.121 491.434C374.167 492.402 373.014 493.171 371.736 493.694C370.457 494.216 369.08 494.481 367.691 494.47Z" fill="#B39573"/>
<path d="M375.427 475.484H203.513C200.744 475.458 198.089 474.428 196.081 472.602C194.073 470.775 192.861 468.288 192.69 465.639L177.303 179.491C177.217 178.218 177.407 176.941 177.861 175.741C178.314 174.541 179.022 173.444 179.939 172.519C180.856 171.593 181.962 170.859 183.189 170.363C184.416 169.866 185.736 169.618 187.068 169.634H358.982C361.75 169.663 364.404 170.696 366.41 172.525C368.415 174.354 369.623 176.843 369.79 179.491L385.178 465.639C385.263 466.911 385.074 468.186 384.621 469.385C384.168 470.583 383.462 471.678 382.546 472.603C381.631 473.527 380.526 474.26 379.3 474.756C378.075 475.252 376.757 475.499 375.427 475.484Z" fill="#FFD5A4"/>
<path d="M375.427 468.908H203.513C202.504 468.874 201.544 468.487 200.814 467.82C200.084 467.153 199.635 466.252 199.553 465.288L184.151 179.154C184.116 178.773 184.166 178.39 184.297 178.029C184.428 177.668 184.638 177.338 184.912 177.061C185.187 176.784 185.52 176.566 185.889 176.422C186.258 176.278 186.655 176.21 187.054 176.224H358.968C359.974 176.26 360.931 176.648 361.658 177.315C362.385 177.982 362.832 178.881 362.914 179.843L378.386 465.977C378.42 466.356 378.37 466.738 378.239 467.098C378.108 467.457 377.899 467.786 377.627 468.062C377.354 468.339 377.023 468.557 376.656 468.703C376.289 468.849 375.894 468.918 375.497 468.908H375.427ZM187.054 176.561C186.704 176.55 186.355 176.61 186.03 176.735C185.705 176.861 185.41 177.05 185.166 177.29C184.93 177.54 184.75 177.832 184.637 178.15C184.523 178.468 184.477 178.805 184.503 179.14L199.891 465.275C199.97 466.151 200.38 466.97 201.044 467.577C201.708 468.184 202.581 468.537 203.499 468.57H375.413C375.761 468.583 376.109 468.525 376.432 468.399C376.755 468.273 377.047 468.083 377.287 467.841C377.528 467.595 377.712 467.303 377.826 466.984C377.94 466.665 377.982 466.326 377.949 465.991L362.575 179.856C362.5 178.981 362.093 178.162 361.431 177.555C360.769 176.948 359.898 176.595 358.982 176.561H187.054Z" fill="white"/>
<path opacity="0.3" d="M315.295 280.509C334.848 261.28 333.575 229.7 312.451 209.973C291.326 190.246 258.351 189.842 238.798 209.07C219.244 228.299 220.518 259.879 241.642 279.606C262.766 299.333 295.741 299.737 315.295 280.509Z" fill="white"/>
<path d="M319.202 244.796C319.597 251.433 318.204 258.054 315.158 264.026C311.861 270.431 306.743 275.813 300.393 279.552C294.043 283.291 286.72 285.235 279.268 285.16C271.545 285.093 263.971 283.112 257.284 279.408C250.597 275.705 245.024 270.405 241.108 264.026C237.459 258.192 235.359 251.589 234.993 244.796C234.645 239.587 235.423 234.365 237.279 229.457C239.134 224.549 242.027 220.061 245.775 216.273C249.524 212.486 254.048 209.481 259.064 207.446C264.08 205.411 269.481 204.39 274.927 204.447C286.264 204.56 297.135 208.786 305.35 216.273C313.565 223.76 318.515 233.952 319.202 244.796Z" fill="white"/>
<path d="M315.116 264.026C311.819 270.431 306.7 275.813 300.351 279.552C294.001 283.291 286.678 285.235 279.225 285.16C271.502 285.093 263.929 283.112 257.242 279.408C250.555 275.705 244.982 270.405 241.066 264.026C251.774 256.939 264.493 253.168 277.506 253.223C290.868 253.271 303.93 257.023 315.116 264.026Z" fill="#FFD5A4"/>
<path d="M290.1 243.858C297.145 236.93 296.683 225.551 289.07 218.44C281.456 211.33 269.573 211.182 262.529 218.11C255.484 225.038 255.945 236.418 263.559 243.528C271.173 250.638 283.055 250.786 290.1 243.858Z" fill="#FFD5A4"/>
<path d="M350.781 364.158H216.167C214.994 364.146 213.87 363.709 213.02 362.935C212.17 362.161 211.658 361.106 211.587 359.985L210.572 341.079C210.537 340.542 210.619 340.003 210.811 339.496C211.003 338.99 211.303 338.527 211.69 338.137C212.078 337.746 212.545 337.437 213.063 337.227C213.581 337.018 214.139 336.913 214.701 336.92H349.315C350.486 336.931 351.608 337.366 352.458 338.138C353.307 338.909 353.821 339.96 353.895 341.079L354.91 359.985C354.947 360.524 354.867 361.064 354.676 361.572C354.484 362.08 354.185 362.544 353.797 362.936C353.41 363.328 352.942 363.639 352.422 363.849C351.903 364.059 351.344 364.164 350.781 364.158Z" fill="white"/>
<path opacity="0.3" d="M309.564 326.482H253.34C252.162 326.473 251.032 326.036 250.179 325.259C249.326 324.481 248.814 323.422 248.746 322.295L248.534 318.244C248.497 317.705 248.577 317.165 248.769 316.657C248.96 316.149 249.259 315.685 249.647 315.293C250.034 314.901 250.503 314.59 251.022 314.38C251.541 314.17 252.1 314.065 252.663 314.072H308.873C310.046 314.083 311.17 314.52 312.02 315.294C312.87 316.069 313.382 317.123 313.453 318.244L313.679 322.295C313.713 322.833 313.633 323.372 313.441 323.879C313.25 324.386 312.953 324.85 312.567 325.242C312.181 325.635 311.716 325.947 311.199 326.16C310.683 326.373 310.126 326.483 309.564 326.482Z" fill="black"/>
<path opacity="0.3" d="M330.475 455.052H246.252C244.257 455.029 242.346 454.284 240.901 452.966C239.456 451.649 238.583 449.857 238.459 447.949L237.966 438.632C237.916 437.716 238.062 436.8 238.393 435.94C238.725 435.08 239.236 434.293 239.895 433.629C240.555 432.964 241.348 432.435 242.228 432.074C243.108 431.713 244.055 431.527 245.012 431.529H329.207C331.202 431.552 333.113 432.297 334.558 433.615C336.003 434.932 336.875 436.724 337 438.632L337.493 447.949C337.543 448.863 337.398 449.776 337.068 450.635C336.738 451.493 336.229 452.278 335.573 452.943C334.917 453.607 334.127 454.136 333.25 454.499C332.374 454.862 331.43 455.05 330.475 455.052Z" fill="black"/>
<path d="M353.247 409.882H218.618C217.447 409.867 216.325 409.429 215.475 408.655C214.626 407.882 214.113 406.829 214.039 405.709L213.024 386.803C212.989 386.265 213.071 385.726 213.263 385.219C213.455 384.712 213.754 384.248 214.141 383.856C214.529 383.465 214.996 383.154 215.514 382.943C216.032 382.732 216.59 382.626 217.153 382.631H351.767C352.94 382.642 354.064 383.079 354.914 383.854C355.764 384.628 356.276 385.682 356.347 386.803L357.376 405.709C357.408 406.247 357.326 406.786 357.133 407.292C356.94 407.798 356.641 408.261 356.254 408.652C355.867 409.043 355.4 409.354 354.883 409.565C354.366 409.777 353.809 409.884 353.247 409.882Z" fill="white"/>
<path d="M233.245 350.532C233.284 351.129 233.194 351.727 232.981 352.289C232.767 352.851 232.436 353.364 232.006 353.798C231.576 354.231 231.058 354.575 230.483 354.808C229.908 355.041 229.289 355.157 228.666 355.15C227.369 355.136 226.127 354.651 225.189 353.794C224.25 352.938 223.685 351.772 223.607 350.532C223.566 349.936 223.654 349.338 223.866 348.776C224.077 348.215 224.408 347.701 224.837 347.267C225.265 346.833 225.783 346.489 226.357 346.256C226.931 346.024 227.549 345.907 228.172 345.914C229.47 345.928 230.714 346.412 231.655 347.269C232.595 348.125 233.164 349.291 233.245 350.532Z" fill="#263238"/>
<path d="M248.083 350.532C248.124 351.128 248.036 351.726 247.824 352.288C247.613 352.85 247.282 353.364 246.854 353.797C246.425 354.231 245.907 354.575 245.333 354.808C244.759 355.041 244.141 355.157 243.518 355.15C242.221 355.139 240.977 354.655 240.037 353.798C239.098 352.94 238.534 351.773 238.459 350.532C238.418 349.936 238.506 349.338 238.718 348.776C238.93 348.215 239.26 347.701 239.689 347.267C240.118 346.833 240.635 346.489 241.209 346.256C241.783 346.024 242.401 345.907 243.025 345.914C244.322 345.925 245.566 346.409 246.505 347.266C247.444 348.124 248.008 349.291 248.083 350.532Z" fill="#263238"/>
<path d="M262.837 350.532C262.878 351.128 262.79 351.726 262.578 352.288C262.366 352.85 262.036 353.364 261.607 353.797C261.178 354.231 260.661 354.575 260.087 354.808C259.513 355.041 258.895 355.157 258.271 355.15C256.974 355.136 255.73 354.652 254.789 353.795C253.849 352.939 253.28 351.773 253.199 350.532C253.16 349.935 253.25 349.337 253.463 348.775C253.676 348.213 254.008 347.7 254.438 347.266C254.868 346.833 255.386 346.489 255.961 346.256C256.536 346.024 257.154 345.907 257.778 345.914C259.074 345.929 260.317 346.413 261.255 347.27C262.194 348.127 262.759 349.292 262.837 350.532Z" fill="#263238"/>
<path d="M277.703 350.532C277.742 351.128 277.652 351.725 277.44 352.285C277.228 352.846 276.897 353.36 276.469 353.793C276.04 354.226 275.524 354.57 274.951 354.804C274.378 355.037 273.761 355.155 273.138 355.15C271.84 355.136 270.596 354.652 269.656 353.795C268.715 352.939 268.147 351.773 268.065 350.532C268.026 349.936 268.116 349.34 268.328 348.779C268.541 348.218 268.871 347.705 269.3 347.271C269.728 346.838 270.245 346.494 270.818 346.26C271.391 346.027 272.008 345.909 272.631 345.914C273.928 345.928 275.172 346.412 276.113 347.269C277.054 348.125 277.622 349.291 277.703 350.532Z" fill="#263238"/>
<path d="M235.739 396.229C235.78 396.825 235.692 397.423 235.48 397.985C235.269 398.547 234.938 399.061 234.51 399.494C234.081 399.928 233.563 400.272 232.989 400.505C232.415 400.738 231.797 400.855 231.174 400.848C229.876 400.833 228.632 400.349 227.692 399.493C226.751 398.636 226.183 397.47 226.101 396.229C226.062 395.633 226.152 395.035 226.366 394.473C226.579 393.911 226.911 393.397 227.34 392.964C227.77 392.53 228.289 392.186 228.863 391.954C229.438 391.721 230.057 391.604 230.681 391.611C231.977 391.626 233.219 392.11 234.158 392.967C235.096 393.824 235.661 394.989 235.739 396.229Z" fill="#263238"/>
<path d="M250.549 396.229C250.588 396.825 250.498 397.422 250.286 397.983C250.074 398.544 249.743 399.057 249.315 399.49C248.886 399.923 248.37 400.267 247.797 400.501C247.224 400.735 246.607 400.853 245.984 400.848C244.686 400.833 243.442 400.349 242.502 399.493C241.561 398.636 240.993 397.47 240.911 396.229C240.87 395.633 240.958 395.036 241.17 394.474C241.382 393.912 241.712 393.398 242.141 392.964C242.57 392.531 243.087 392.187 243.661 391.954C244.235 391.721 244.853 391.604 245.477 391.611C246.774 391.626 248.018 392.11 248.959 392.966C249.9 393.823 250.468 394.988 250.549 396.229Z" fill="#263238"/>
<path d="M265.359 396.229C265.398 396.826 265.308 397.424 265.095 397.986C264.882 398.548 264.55 399.062 264.12 399.495C263.69 399.928 263.172 400.272 262.597 400.505C262.022 400.738 261.404 400.854 260.78 400.848C259.483 400.836 258.239 400.353 257.299 399.495C256.36 398.638 255.796 397.47 255.721 396.229C255.68 395.633 255.768 395.036 255.98 394.474C256.192 393.912 256.522 393.398 256.951 392.964C257.38 392.531 257.897 392.187 258.471 391.954C259.045 391.721 259.663 391.604 260.287 391.611C261.584 391.626 262.828 392.11 263.769 392.966C264.71 393.823 265.278 394.988 265.359 396.229Z" fill="#263238"/>
<path d="M280.155 396.229C280.196 396.825 280.108 397.423 279.896 397.985C279.685 398.547 279.354 399.061 278.925 399.494C278.497 399.928 277.979 400.272 277.405 400.505C276.831 400.738 276.213 400.855 275.59 400.848C274.292 400.833 273.048 400.349 272.108 399.493C271.167 398.636 270.599 397.47 270.517 396.229C270.478 395.633 270.568 395.035 270.781 394.473C270.995 393.911 271.327 393.397 271.756 392.964C272.186 392.53 272.705 392.186 273.279 391.954C273.854 391.721 274.473 391.604 275.097 391.611C276.394 391.623 277.638 392.106 278.577 392.964C279.516 393.821 280.08 394.988 280.155 396.229Z" fill="#263238"/>
<path d="M294.965 396.229C295.006 396.825 294.918 397.423 294.706 397.985C294.495 398.547 294.164 399.061 293.735 399.494C293.307 399.928 292.789 400.272 292.215 400.505C291.641 400.738 291.023 400.855 290.4 400.848C289.102 400.833 287.858 400.349 286.917 399.493C285.977 398.636 285.409 397.47 285.327 396.229C285.288 395.634 285.378 395.037 285.59 394.476C285.803 393.915 286.133 393.402 286.562 392.969C286.99 392.535 287.507 392.191 288.08 391.958C288.653 391.724 289.27 391.606 289.892 391.611C291.19 391.626 292.434 392.11 293.375 392.966C294.315 393.823 294.884 394.988 294.965 396.229Z" fill="#263238"/>
<path d="M309.775 396.229C309.814 396.826 309.724 397.424 309.511 397.986C309.297 398.548 308.966 399.062 308.536 399.495C308.106 399.928 307.588 400.272 307.013 400.505C306.438 400.738 305.819 400.854 305.196 400.848C303.899 400.833 302.657 400.348 301.719 399.492C300.78 398.635 300.215 397.469 300.137 396.229C300.096 395.633 300.184 395.036 300.396 394.474C300.607 393.912 300.938 393.398 301.367 392.964C301.795 392.531 302.313 392.187 302.887 391.954C303.461 391.721 304.079 391.604 304.702 391.611C306 391.626 307.244 392.11 308.185 392.966C309.125 393.823 309.694 394.988 309.775 396.229Z" fill="#263238"/>
</g>
<g filter="url(#filter1_d_85_158)">
<path d="M469.98 239.408C470.332 239.921 470.515 240.192 470.74 240.556L471.375 241.555C471.783 242.231 472.15 242.906 472.502 243.568C473.206 244.918 473.911 246.268 474.475 247.619C475.656 250.301 476.672 253.047 477.518 255.843C479.224 261.366 480.348 267.039 480.872 272.776L480.971 273.843C480.983 274.059 480.983 274.276 480.971 274.492V275.207C480.994 276.146 480.938 277.086 480.802 278.016C480.531 279.741 480.059 281.43 479.393 283.053C478.155 285.951 476.515 288.677 474.517 291.155C470.79 295.728 466.368 299.739 461.398 303.052L457.509 298.691C461.048 294.86 464.182 290.703 466.865 286.28C468.073 284.274 469.019 282.133 469.684 279.907C469.953 278.963 470.109 277.994 470.149 277.017C470.192 276.599 470.192 276.178 470.149 275.761V275.477C470.163 275.352 470.163 275.225 470.149 275.099L469.98 274.154C469.073 269.121 467.792 264.157 466.147 259.3C465.329 256.882 464.329 254.546 463.328 252.264C462.835 251.116 462.272 249.995 461.708 248.915L460.834 247.322L460.397 246.579L460.031 245.985L469.98 239.408Z" fill="#803E3C"/>
<path d="M456.875 303.079L461.976 313.41L466.02 304.673C466.02 304.673 462.427 297.111 457.565 297.813L456.875 303.079Z" fill="#7F3E3B"/>
<path d="M465.625 313.923L469.684 307.549L466.02 304.673L461.976 313.41L465.625 313.923Z" fill="#7F3E3B"/>
<path d="M442.685 552.159C443.74 552.134 444.789 551.998 445.813 551.754C445.865 551.739 445.912 551.711 445.949 551.673C445.986 551.635 446.012 551.588 446.024 551.538C446.033 551.486 446.025 551.432 446.003 551.385C445.98 551.337 445.944 551.296 445.897 551.268C445.489 551.011 441.91 548.796 440.529 549.391C440.376 549.459 440.244 549.565 440.148 549.698C440.051 549.831 439.993 549.986 439.979 550.147C439.936 550.391 439.956 550.642 440.037 550.877C440.118 551.112 440.258 551.325 440.444 551.497C441.083 551.97 441.879 552.205 442.685 552.159ZM445.01 551.362C442.966 551.767 441.416 551.7 440.782 551.173C440.653 551.05 440.558 550.898 440.506 550.73C440.454 550.562 440.448 550.385 440.486 550.214C440.486 549.985 440.627 549.917 440.726 549.877C441.487 549.553 443.558 550.511 445.01 551.362Z" fill="#FFD5A4"/>
<path d="M445.742 551.754H445.883C445.926 551.727 445.961 551.691 445.985 551.649C446.01 551.607 446.023 551.559 446.024 551.511C446.024 551.376 446.024 548.121 444.728 547.027C444.569 546.89 444.381 546.788 444.176 546.727C443.972 546.667 443.756 546.649 443.544 546.676C443.322 546.678 443.107 546.753 442.935 546.888C442.763 547.023 442.645 547.21 442.6 547.419C442.332 548.702 444.474 551.133 445.602 551.754H445.742ZM443.727 547.176C443.841 547.173 443.955 547.192 444.061 547.231C444.168 547.27 444.265 547.33 444.347 547.406C445.091 548.456 445.475 549.702 445.447 550.971C444.319 550.106 442.981 548.27 443.15 547.5C443.15 547.379 443.248 547.217 443.601 547.176H443.727Z" fill="#FFD5A4"/>
<path d="M429.382 546.649C429.416 546.61 429.437 546.562 429.444 546.512C429.452 546.462 429.445 546.411 429.425 546.364C429.405 546.317 429.372 546.276 429.33 546.246C429.288 546.215 429.238 546.196 429.185 546.19C428.607 546.19 423.549 545.961 422.393 547.149V547.23C422.298 547.347 422.236 547.486 422.213 547.632C422.191 547.779 422.209 547.929 422.266 548.067C422.342 548.299 422.475 548.51 422.654 548.682C422.833 548.853 423.053 548.981 423.295 549.053C424.93 549.539 427.818 547.77 429.397 546.676L429.382 546.649ZM422.816 547.5C423.45 546.852 426.24 546.676 428.326 546.703C426.141 548.135 424.324 548.81 423.408 548.54C423.248 548.493 423.103 548.41 422.985 548.297C422.867 548.184 422.78 548.045 422.731 547.892C422.703 547.84 422.688 547.782 422.688 547.723C422.688 547.664 422.703 547.606 422.731 547.554L422.816 547.5Z" fill="#FFD5A4"/>
<path d="M429.382 546.649C429.404 546.607 429.415 546.561 429.415 546.514C429.415 546.468 429.404 546.421 429.382 546.379C429.312 546.271 427.734 543.678 425.874 543.138C425.607 543.063 425.326 543.041 425.05 543.074C424.774 543.106 424.507 543.193 424.267 543.327C423.591 543.705 423.549 544.151 423.633 544.435C424 545.691 427.593 546.798 429.143 546.784C429.192 546.784 429.239 546.771 429.281 546.747C429.323 546.723 429.358 546.69 429.382 546.649ZM424.324 543.949C424.403 543.874 424.493 543.81 424.591 543.76C424.765 543.653 424.961 543.585 425.166 543.559C425.371 543.534 425.578 543.551 425.775 543.611C427.001 543.922 428.142 545.434 428.664 546.177C426.987 546.001 424.436 545.015 424.225 544.259C424.207 544.202 424.207 544.141 424.224 544.083C424.242 544.026 424.276 543.974 424.324 543.935V543.949Z" fill="#FFD5A4"/>
<path d="M444.897 199.855C443.488 206.607 440.444 221.205 445.334 225.688C445.334 225.688 443.417 232.44 430.411 232.44C416.094 232.44 423.577 225.688 423.577 225.688C431.383 223.906 431.186 218.342 429.819 213.13L444.897 199.855Z" fill="#7F3E3B"/>
<path d="M421.054 184.029C421.134 184.041 421.215 184.041 421.294 184.029C421.361 183.997 421.421 183.953 421.47 183.899C421.519 183.845 421.556 183.783 421.58 183.715C421.603 183.647 421.613 183.575 421.607 183.504C421.602 183.433 421.581 183.363 421.548 183.3C421.169 182.529 420.602 181.857 419.896 181.34C419.19 180.823 418.365 180.477 417.489 180.329C417.343 180.317 417.197 180.359 417.082 180.447C416.966 180.535 416.89 180.662 416.869 180.801C416.853 180.943 416.896 181.084 416.989 181.195C417.081 181.307 417.215 181.379 417.363 181.396C418.053 181.523 418.703 181.806 419.257 182.221C419.81 182.637 420.253 183.173 420.547 183.786C420.602 183.866 420.678 183.93 420.767 183.973C420.856 184.016 420.955 184.035 421.054 184.029Z" fill="#263238"/>
<path d="M416.785 189.957C415.676 191.928 414.291 193.746 412.67 195.359C413.109 195.743 413.63 196.032 414.197 196.205C414.764 196.377 415.363 196.43 415.953 196.358L416.785 189.957Z" fill="#630F0F"/>
<path d="M417.842 188.431C417.729 189.336 417.123 190.011 416.517 189.943C415.911 189.876 415.488 189.079 415.601 188.174C415.714 187.27 416.32 186.594 417.01 186.662C417.701 186.73 417.94 187.526 417.842 188.431Z" fill="#263238"/>
<path d="M417.193 186.743L415.023 185.906C415.023 185.906 415.939 187.688 417.193 186.743Z" fill="#263238"/>
<path d="M441.825 544.084L430.327 546.649L423.337 521.316L434.836 518.75L441.825 544.084Z" fill="#7F3E3B"/>
<path d="M459.467 551.484H447.673L448.589 525.3H460.397L459.467 551.484Z" fill="#7F3E3B"/>
<path d="M446.729 550.174H459.989C460.219 550.172 460.441 550.25 460.615 550.395C460.789 550.539 460.902 550.739 460.933 550.957L462.441 561.004C462.471 561.258 462.444 561.515 462.362 561.759C462.281 562.002 462.147 562.227 461.968 562.417C461.79 562.607 461.571 562.758 461.327 562.862C461.083 562.965 460.819 563.018 460.552 563.016C455.93 562.949 453.704 562.679 447.87 562.679C444.277 562.679 439.035 563.043 434.089 563.043C429.143 563.043 428.861 558.344 430.932 557.925C440.176 556.008 441.642 553.388 444.756 550.876C445.306 550.426 446.005 550.177 446.729 550.174Z" fill="#263238"/>
<path d="M429.312 544.961L441.36 539.654C441.565 539.561 441.798 539.542 442.016 539.602C442.234 539.661 442.422 539.795 442.544 539.978L448.307 548.513C448.442 548.732 448.527 548.977 448.557 549.23C448.587 549.483 448.561 549.739 448.482 549.982C448.402 550.225 448.27 550.45 448.094 550.641C447.919 550.832 447.703 550.986 447.462 551.092C443.234 552.875 441.092 553.536 435.794 555.873C432.539 557.304 425.93 560.599 421.449 562.624C416.968 564.65 414.657 560.45 416.348 559.235C423.915 553.833 426.085 549.958 427.818 546.433C428.111 545.784 428.643 545.26 429.312 544.961Z" fill="#263238"/>
<path opacity="0.2" d="M423.337 521.316L427.086 534.901L438.443 531.809L434.85 518.75L423.337 521.316Z" fill="black"/>
<path opacity="0.2" d="M460.397 525.3H448.589L448.124 538.803H459.932L460.397 525.3Z" fill="black"/>
<path d="M465.752 228.254C470.656 229.294 475.898 246.187 475.898 246.187L462.032 260.326C462.032 260.326 450.519 244.445 452.873 238.611C455.254 232.521 459.904 227.039 465.752 228.254Z" fill="#263238"/>
<path opacity="0.4" d="M457.917 239.017C455.437 236.843 453.76 237.491 452.619 239.219C451.492 244.243 458.171 254.762 460.862 258.746C462.102 253.992 463.526 243.973 457.917 239.017Z" fill="black"/>
<path d="M403.623 228.592C403.623 228.592 397.987 230.482 409.26 296.854H457.171C456.367 278.165 456.339 266.632 465.625 228.254C458.912 226.927 452.107 226.069 445.263 225.688C438.02 225.188 430.749 225.188 423.506 225.688C414.22 226.512 403.623 228.592 403.623 228.592Z" fill="#263238"/>
<path opacity="0.4" d="M403.187 254.06C403.497 257.287 403.905 260.92 404.441 265.025C408.372 261.636 411.585 251.994 410.401 246.376C407.593 248.561 405.158 251.154 403.187 254.06Z" fill="black"/>
<path d="M408.316 243.973C405.731 250.208 402.819 256.315 399.593 262.27C396.405 268.441 392.631 274.317 388.32 279.826L387.418 280.892L386.968 281.419C386.813 281.595 386.686 281.757 386.446 282C385.598 282.886 384.653 283.683 383.628 284.376C381.815 285.579 379.832 286.525 377.738 287.185C374.086 288.303 370.295 288.948 366.465 289.103C359.292 289.376 352.112 288.763 345.102 287.28L345.877 281.608C349.118 281.608 352.514 281.608 355.741 281.351C358.982 281.199 362.21 280.856 365.408 280.325C368.377 279.881 371.282 279.101 374.06 278.002C375.182 277.543 376.23 276.934 377.174 276.193C377.534 275.904 377.86 275.578 378.146 275.221C378.146 275.221 378.315 275.005 378.428 274.856L378.752 274.41L379.415 273.519C382.951 268.285 386.101 262.821 388.842 257.166C391.66 251.427 394.478 245.472 397.057 239.611L408.316 243.973Z" fill="#803E3C"/>
<path d="M403.624 228.592C397.747 229.942 390.533 245.391 390.533 245.391L402.708 262.54C402.708 262.54 418.927 242.973 416.996 237.005C415.023 230.779 410.796 226.917 403.624 228.592Z" fill="#263238"/>
<path d="M349.259 282.472L339.099 277.975L338.085 287.658C338.085 287.658 346.54 290.048 350.767 287.658L349.259 282.472Z" fill="#7F3E3B"/>
<path d="M333.026 277.003L332.054 284.376L338.085 287.658L339.099 277.975L333.026 277.003Z" fill="#7F3E3B"/>
<path d="M449.998 189.093C447.842 200.125 447.18 204.852 440.585 209.862C430.721 217.397 416.982 212.454 415.657 201.03C414.446 190.74 418.166 174.427 430.101 171.322C432.73 170.626 435.501 170.588 438.15 171.211C440.799 171.833 443.237 173.096 445.232 174.878C447.228 176.66 448.713 178.902 449.547 181.39C450.382 183.879 450.537 186.531 449.998 189.093Z" fill="#7F3E3B"/>
<path d="M424.704 191.415C424.042 197.047 423.788 211.671 436.696 212.13C452.492 212.684 457.227 199.747 455.818 194.575C464.047 188.161 465.231 177.128 455.987 168.688C446.743 160.248 426.395 164.961 420.759 173.185C413.614 183.381 424.704 191.415 424.704 191.415Z" fill="#263238"/>
<path d="M440.529 171.97C439.768 166.028 440.36 161.936 446.165 161.936C451.971 161.936 459.89 163.948 462.793 169.634C465.696 175.319 465.935 184.218 457.833 183.313C449.73 182.408 441.445 179.073 440.529 171.97Z" fill="#FFD5A4"/>
<path d="M449.519 170.538C448.11 163.462 454.719 143.53 470.769 142.18C478.209 141.572 481.647 149.243 477.814 150.512C484.86 150.431 489.369 159.357 482.803 160.694C487.988 163.881 486.706 170.417 479.308 173.631C473.798 176.061 451.421 180.342 449.519 170.538Z" fill="#263238"/>
<path d="M466.668 178.141C461.497 178.141 456.1 177.412 452.746 175.265C451.808 174.723 451.019 173.975 450.443 173.083C449.867 172.19 449.521 171.179 449.434 170.133C449.43 170.044 449.461 169.957 449.521 169.89C449.582 169.822 449.666 169.779 449.758 169.769C449.805 169.763 449.852 169.767 449.898 169.779C449.943 169.792 449.984 169.814 450.02 169.843C450.056 169.873 450.085 169.909 450.106 169.949C450.126 169.99 450.137 170.034 450.139 170.079C450.224 171.023 450.54 171.934 451.061 172.739C451.583 173.544 452.295 174.22 453.14 174.711C459.524 178.762 474.277 177.412 478.871 176.061C482.845 174.819 485.536 172.402 486.072 169.62C486.239 168.599 486.107 167.554 485.692 166.6C485.276 165.647 484.593 164.822 483.719 164.218C483.685 164.188 483.658 164.152 483.64 164.111C483.621 164.07 483.612 164.026 483.612 163.982C483.612 163.938 483.621 163.894 483.64 163.853C483.658 163.813 483.685 163.776 483.719 163.746C483.784 163.684 483.873 163.649 483.965 163.649C484.057 163.649 484.146 163.684 484.212 163.746C485.195 164.434 485.96 165.37 486.42 166.45C486.881 167.53 487.019 168.712 486.819 169.863C486.241 172.901 483.38 175.494 479.153 176.818C475.074 177.803 470.873 178.248 466.668 178.141Z" fill="#263238"/>
<path d="M421.111 189.957C419.799 191.721 419.258 193.906 419.603 196.047C420.068 198.883 422.943 199.072 425.028 197.263C427.114 195.453 428.931 192.185 427.396 189.835C427.054 189.328 426.583 188.912 426.027 188.629C425.47 188.345 424.848 188.203 424.218 188.215C423.588 188.227 422.972 188.393 422.428 188.698C421.884 189.003 421.43 189.437 421.111 189.957Z" fill="#7F3E3B"/>
<path d="M421.914 296.854C421.914 296.854 428.762 374.488 435.879 418.241C441.614 453.58 446.151 536.184 446.151 536.184H462.243C462.243 536.184 467.964 456.052 465.062 421.104C457.692 332.653 474.136 325.442 457.213 296.868L421.914 296.854Z" fill="#FFD5A4"/>
<path opacity="0.4" d="M442.177 326.198C435.8 332.613 430.653 340.055 426.973 348.182C428.847 365.629 431.073 384.994 433.441 401.955C443.155 377.855 446.165 351.749 442.177 326.198Z" fill="black"/>
<path d="M410.655 296.368C410.655 296.368 395.789 381.159 393.45 419.375C399.283 454.715 423.154 529.418 423.154 529.418L437.795 524.327C437.795 524.327 429.692 442.872 420.885 420.577C440.712 356.609 455.282 340.431 451.041 296.854C440.881 296.854 410.655 296.368 410.655 296.368Z" fill="#FFD5A4"/>
<path d="M421.195 533.146L440.98 528L439.852 520.438L418.673 525.934L421.195 533.146Z" fill="#263238"/>
<path d="M443.939 536.494H464.442L465.513 529.607L443.826 528.905L443.939 536.494Z" fill="#263238"/>
<path d="M457.917 294.153L460.073 298.272C460.242 298.596 459.848 298.92 459.298 298.92H409.02C408.598 298.92 408.231 298.718 408.203 298.447L407.766 294.396C407.766 294.113 408.119 293.87 408.584 293.87H457.128C457.274 293.851 457.422 293.866 457.56 293.916C457.698 293.965 457.821 294.047 457.917 294.153Z" fill="#FFD5A4"/>
<path opacity="0.5" d="M457.917 294.153L460.073 298.272C460.242 298.596 459.848 298.92 459.298 298.92H409.02C408.598 298.92 408.231 298.718 408.203 298.447L407.766 294.396C407.766 294.113 408.119 293.87 408.584 293.87H457.128C457.274 293.851 457.422 293.866 457.56 293.916C457.698 293.965 457.821 294.047 457.917 294.153Z" fill="black"/>
<path d="M451.393 299.339H452.689C452.957 299.339 453.154 299.204 453.14 299.055L452.52 293.654C452.52 293.492 452.281 293.37 452.027 293.37H450.717C450.463 293.37 450.266 293.492 450.28 293.654L450.886 299.055C450.914 299.231 451.139 299.339 451.393 299.339Z" fill="#FFD5A4"/>
<path d="M433.948 260.015C433.792 260.013 433.642 259.963 433.518 259.874C433.393 259.784 433.302 259.658 433.258 259.516C428.664 243.23 419.166 229.807 414.558 227.781C414.2 227.571 413.77 227.503 413.361 227.592C413.275 227.635 413.182 227.661 413.086 227.668C412.99 227.675 412.894 227.664 412.803 227.634C412.712 227.604 412.628 227.556 412.557 227.494C412.486 227.432 412.429 227.356 412.39 227.272C412.35 227.188 412.329 227.097 412.328 227.005C412.326 226.913 412.344 226.822 412.381 226.736C412.418 226.651 412.473 226.574 412.542 226.51C412.611 226.446 412.693 226.396 412.783 226.364C413.168 226.228 413.579 226.175 413.988 226.207C414.397 226.24 414.794 226.358 415.15 226.553C420.026 228.767 429.664 242.001 434.483 258.651C437.936 258.651 443.262 258.206 444.559 258.098C446.165 256.261 457.974 242.109 453.563 226.62C453.538 226.535 453.53 226.446 453.541 226.358C453.552 226.27 453.582 226.185 453.628 226.108C453.674 226.031 453.736 225.964 453.809 225.911C453.883 225.857 453.967 225.818 454.056 225.796C454.236 225.751 454.427 225.775 454.587 225.863C454.748 225.952 454.866 226.098 454.916 226.269C459.834 243.5 445.573 259.043 445.418 259.192C445.363 259.257 445.295 259.311 445.217 259.351C445.14 259.39 445.055 259.414 444.967 259.421C444.897 259.421 437.865 260.015 433.948 260.015Z" fill="#FFD5A4"/>
<path d="M457.297 269.549C449.618 255.762 446.475 254.789 445.108 250.36C446.144 247.883 447.622 245.598 449.477 243.608C448.547 243.351 446.546 242.973 445.249 242.744C445.39 242.136 445.545 241.542 445.686 240.961C444.275 240.81 442.849 240.874 441.459 241.15V239.8C439.669 239.427 437.831 239.313 436.005 239.462C436.165 240.102 436.32 240.75 436.47 241.407C435.061 241.664 432.919 242.082 431.891 242.366C433.89 244.535 435.358 247.105 436.189 249.887C432.046 256.707 415.953 300.541 442.135 303.903C468.317 307.265 464.963 283.35 457.297 269.549Z" fill="#FFD5A4"/>
<path opacity="0.4" d="M457.297 269.549C449.618 255.762 446.475 254.789 445.108 250.36C446.144 247.883 447.622 245.598 449.477 243.608C448.547 243.351 446.546 242.973 445.249 242.744C445.39 242.136 445.545 241.542 445.686 240.961C444.275 240.81 442.849 240.874 441.459 241.15V239.8C439.669 239.427 437.831 239.313 436.005 239.462C436.165 240.102 436.32 240.75 436.47 241.407C435.061 241.664 432.919 242.082 431.891 242.366C433.89 244.535 435.358 247.105 436.189 249.887C432.046 256.707 415.953 300.541 442.135 303.903C468.317 307.265 464.963 283.35 457.297 269.549Z" fill="white"/>
<path d="M435.118 248.577C434.955 249.273 434.884 249.985 434.906 250.698C434.906 251.197 436.315 251.535 437.879 251.683C439.444 251.832 446.01 252.075 445.799 251.373C445.587 250.671 446.123 249.712 446.151 249.118C446.179 248.523 443.544 248.496 441.332 248.577C439.12 248.658 435.554 247.821 435.118 248.577Z" fill="#FFD5A4"/>
<path d="M419.885 299.339H421.181C421.435 299.339 421.632 299.204 421.618 299.055L421.012 293.654C421.012 293.492 420.773 293.37 420.505 293.37H419.251C418.997 293.37 418.8 293.492 418.814 293.654L419.42 299.055C419.392 299.231 419.617 299.339 419.885 299.339Z" fill="#FFD5A4"/>
</g>
<defs>
<filter id="filter0_d_85_158" x="156.513" y="169.633" width="232.685" height="332.838" filterUnits="userSpaceOnUse" color-interpolation-filters="sRGB">
<feFlood flood-opacity="0" result="BackgroundImageFix"/>
<feColorMatrix in="SourceAlpha" type="matrix" values="0 0 0 0 0 0 0 0 0 0 0 0 0 0 0 0 0 0 127 0" result="hardAlpha"/>
<feOffset dy="4"/>
<feGaussianBlur stdDeviation="2"/>
<feColorMatrix type="matrix" values="0 0 0 0 0 0 0 0 0 0 0 0 0 0 0 0 0 0 0.25 0"/>
<feBlend mode="normal" in2="BackgroundImageFix" result="effect1_dropShadow_85_158"/>
<feBlend mode="normal" in="SourceGraphic" in2="effect1_dropShadow_85_158" result="shape"/>
</filter>
<filter id="filter1_d_85_158" x="328.054" y="142.146" width="162.854" height="429.022" filterUnits="userSpaceOnUse" color-interpolation-filters="sRGB">
<feFlood flood-opacity="0" result="BackgroundImageFix"/>
<feColorMatrix in="SourceAlpha" type="matrix" values="0 0 0 0 0 0 0 0 0 0 0 0 0 0 0 0 0 0 127 0" result="hardAlpha"/>
<feOffset dy="4"/>
<feGaussianBlur stdDeviation="2"/>
<feColorMatrix type="matrix" values="0 0 0 0 0 0 0 0 0 0 0 0 0 0 0 0 0 0 0.25 0"/>
<feBlend mode="normal" in2="BackgroundImageFix" result="effect1_dropShadow_85_158"/>
<feBlend mode="normal" in="SourceGraphic" in2="effect1_dropShadow_85_158" result="shape"/>
</filter>
</defs>
</svg>
