<svg width="588" height="588" viewBox="0 0 588 588" fill="none" xmlns="http://www.w3.org/2000/svg">
<path d="M294 502.811C419.929 502.811 522.015 496.85 522.015 489.498C522.015 482.146 419.929 476.186 294 476.186C168.071 476.186 65.9854 482.146 65.9854 489.498C65.9854 496.85 168.071 502.811 294 502.811Z" fill="#F5F5F5"/>
<g filter="url(#filter0_d_101_0)">
<path d="M486.441 174.318H309.194C309.194 174.318 277.266 203.718 277.266 275.196C277.266 336.665 301.479 420.008 292.389 454.124C285.533 479.867 252.287 484.288 236.352 484.9H405.061C405.061 484.9 460.545 488.252 469.636 454.124C478.726 419.997 454.512 336.665 454.512 275.184C454.512 203.671 486.441 174.318 486.441 174.318Z" fill="#FFD5A4"/>
<path opacity="0.7" d="M486.441 174.318H309.194C309.194 174.318 277.266 203.718 277.266 275.196C277.266 336.665 301.479 420.008 292.389 454.124C285.533 479.867 252.287 484.288 236.352 484.9H405.061C405.061 484.9 460.545 488.252 469.636 454.124C478.726 419.997 454.512 336.665 454.512 275.184C454.512 203.671 486.441 174.318 486.441 174.318Z" fill="#FFD5A4"/>
<g opacity="0.8">
<path opacity="0.8" d="M438.225 249.7H296.47C300.48 218.254 311.287 199.955 317.25 191.958H453.936C447.233 205.953 440.906 225.016 438.225 249.7Z" fill="#D9A680"/>
<path opacity="0.3" d="M437.037 266.376H295.082C295.2 263.518 295.364 260.743 295.599 258.061H437.472C437.276 260.766 437.131 263.538 437.037 266.376Z" fill="#630F0F"/>
<path opacity="0.3" d="M339.594 283.04H295.035C294.956 280.382 294.913 277.767 294.906 275.196V274.737H339.476V275.184C339.476 277.783 339.511 280.405 339.594 283.04Z" fill="#630F0F"/>
<path opacity="0.3" d="M437.884 299.704H296.035C295.788 296.905 295.588 294.129 295.435 291.401H437.343C437.484 294.153 437.664 296.92 437.884 299.704Z" fill="#630F0F"/>
<path opacity="0.3" d="M439.448 316.344H297.716C297.387 313.561 297.081 310.789 296.799 308.03H438.648C438.848 310.829 439.142 313.604 439.448 316.344Z" fill="#630F0F"/>
<path opacity="0.3" d="M441.494 333.043H299.88C299.492 330.268 299.127 327.492 298.775 324.741H440.436C440.765 327.508 441.118 330.276 441.494 333.043Z" fill="#630F0F"/>
<path opacity="0.3" d="M443.834 349.707H302.232C301.824 346.932 301.432 344.164 301.056 341.405H442.646C443.034 344.168 443.434 346.92 443.834 349.707Z" fill="#630F0F"/>
<path opacity="0.3" d="M446.339 366.383H304.784C304.56 364.866 304.325 363.325 304.09 361.785L303.526 358.069H445.081C445.504 360.844 445.916 363.619 446.339 366.383Z" fill="#630F0F"/>
<path opacity="0.3" d="M307.254 383.047C306.862 380.303 306.47 377.535 306.078 374.744H447.609C448.021 377.52 448.444 380.283 448.844 383.047H307.254Z" fill="#630F0F"/>
<path opacity="0.3" d="M309.5 399.711C309.17 396.994 308.806 394.219 308.43 391.408H426.5C426.9 394.207 427.276 396.982 427.676 399.711H309.5Z" fill="#630F0F"/>
<path opacity="0.3" d="M311.24 416.386C311.013 413.674 310.754 410.902 310.464 408.072H452.196C452.513 410.918 452.807 413.693 453.054 416.386H311.24Z" fill="#630F0F"/>
<path opacity="0.3" d="M312.052 433.05C312.052 430.369 311.946 427.594 311.793 424.748H386.575C386.763 427.652 386.869 430.428 386.904 433.05H312.052Z" fill="#630F0F"/>
</g>
</g>
<g filter="url(#filter1_d_101_0)">
<path d="M178.611 217.713C179.352 218.665 180.304 219.783 181.175 220.818C182.045 221.852 182.997 222.899 183.938 223.91C185.832 225.933 187.748 227.921 189.818 229.79C193.656 233.435 198.016 236.487 202.754 238.846C203.33 239.104 203.93 239.34 204.459 239.551C204.721 239.655 204.988 239.746 205.259 239.822C205.51 239.921 205.77 239.996 206.035 240.045C207.164 240.335 208.318 240.516 209.481 240.586C212.084 240.713 214.694 240.563 217.266 240.139C219.998 239.723 222.703 239.149 225.369 238.422C228.073 237.717 230.837 236.846 233.412 235.941L235.764 240.645C230.537 243.913 224.876 246.431 218.948 248.124C215.822 249.019 212.6 249.536 209.352 249.665C207.592 249.735 205.83 249.621 204.095 249.324C203.648 249.253 203.189 249.147 202.742 249.042C202.296 248.936 201.825 248.818 201.437 248.689C200.614 248.442 199.814 248.171 199.085 247.866C193.099 245.404 187.591 241.914 182.809 237.552C180.476 235.53 178.25 233.386 176.141 231.131C175.095 229.955 174.072 228.861 173.084 227.685C172.096 226.509 171.155 225.333 170.132 223.981L178.611 217.713Z" fill="#FFB573"/>
<path d="M166.651 214.385C166.392 220.97 169.003 232.848 169.003 232.848L185.302 230.872C185.302 230.872 185.902 213.491 182.739 209.293C177.388 202.272 166.898 208.152 166.651 214.385Z" fill="#9B5745"/>
<path d="M231.225 237.611L238.857 230.625L239.833 238.152C239.833 238.152 236.67 242.397 233.083 240.61L231.225 237.611Z" fill="#FFB573"/>
<path d="M242.691 231.037L245.925 235.271L239.833 238.152L238.857 230.625L242.691 231.037Z" fill="#FFB573"/>
<path d="M240.762 211.998C241.574 211.998 242.021 211.998 242.597 211.998C242.844 211.981 243.091 211.981 243.338 211.998L243.949 212.08C244.477 212.142 244.98 212.341 245.408 212.656C245.616 212.901 245.754 213.198 245.808 213.515L246.078 214.408L247.172 217.936L249.359 225.075L253.722 239.363C256.603 248.889 259.602 258.391 262.377 267.94C268.081 287.015 273.479 306.16 278.783 325.34C284.086 344.521 289.073 363.784 294.2 382.964C299.327 402.145 303.914 421.549 305.548 441.682C305.607 443.028 305.202 444.354 304.401 445.437C303.6 446.52 302.451 447.295 301.147 447.633C299.842 447.97 298.462 447.849 297.236 447.291C296.01 446.732 295.013 445.769 294.412 444.563C286.062 426.171 280.605 407.037 275.831 387.727C271.056 368.417 265.988 349.272 261.307 329.974C256.627 310.676 252.052 291.272 247.771 271.832C245.572 262.13 243.573 252.37 241.468 242.644L238.352 228.038L236.788 220.735L236.011 217.078L235.812 216.172C235.705 215.866 235.681 215.538 235.741 215.22C235.97 214.753 236.309 214.35 236.729 214.044L237.234 213.667C237.428 213.52 237.633 213.386 237.846 213.268C238.352 212.974 238.716 212.727 239.445 212.374C239.856 212.164 240.303 212.036 240.762 211.998Z" fill="#263238"/>
<path d="M304.419 444.716C304.331 444.398 304.122 444.127 303.836 443.962C303.55 443.797 303.21 443.751 302.891 443.834L300.303 444.504L297.716 445.175C297.396 445.258 297.122 445.464 296.952 445.748C296.783 446.032 296.732 446.371 296.811 446.692C298.422 454.101 296.811 459.404 298.528 465.919C300.303 472.776 308.03 476.292 308.03 476.292L307.783 473.364L308.959 476.045C308.959 476.045 314.004 469.224 312.228 462.368C310.558 455.853 306.607 451.972 304.419 444.716Z" fill="#FFD5A4"/>
<path opacity="0.3" d="M304.419 444.716C304.331 444.398 304.122 444.127 303.836 443.962C303.55 443.797 303.21 443.751 302.891 443.834L300.303 444.504L297.716 445.175C297.396 445.258 297.122 445.464 296.952 445.748C296.783 446.032 296.732 446.371 296.811 446.692C298.422 454.101 296.811 459.404 298.528 465.919C300.303 472.776 308.03 476.292 308.03 476.292L307.783 473.364L308.959 476.045C308.959 476.045 314.004 469.224 312.228 462.368C310.558 455.853 306.607 451.972 304.419 444.716Z" fill="white"/>
<path d="M306.43 461.721C306.506 462.03 306.489 462.354 306.381 462.653C306.273 462.953 306.079 463.213 305.823 463.402C305.567 463.591 305.261 463.7 304.944 463.715C304.626 463.731 304.311 463.652 304.038 463.488C303.765 463.325 303.547 463.084 303.411 462.797C303.274 462.51 303.226 462.189 303.272 461.874C303.317 461.559 303.455 461.265 303.668 461.029C303.88 460.792 304.158 460.624 304.466 460.545C304.883 460.442 305.323 460.508 305.691 460.728C306.059 460.948 306.325 461.305 306.43 461.721Z" fill="#263238"/>
<path d="M307.877 473.716C307.83 473.73 307.782 473.735 307.734 473.729C307.685 473.724 307.639 473.708 307.597 473.684C307.555 473.66 307.519 473.627 307.49 473.588C307.461 473.549 307.441 473.505 307.43 473.458L304.513 462.227C304.501 462.18 304.498 462.132 304.504 462.085C304.51 462.037 304.526 461.991 304.55 461.95C304.574 461.908 304.606 461.872 304.644 461.843C304.682 461.814 304.726 461.792 304.772 461.78C304.818 461.766 304.867 461.761 304.915 461.767C304.963 461.772 305.01 461.788 305.052 461.812C305.094 461.836 305.13 461.869 305.159 461.908C305.188 461.947 305.208 461.991 305.219 462.039L308.136 473.269C308.148 473.316 308.151 473.364 308.145 473.412C308.139 473.459 308.123 473.505 308.099 473.547C308.075 473.588 308.043 473.624 308.005 473.654C307.967 473.683 307.923 473.704 307.877 473.716Z" fill="#263238"/>
<path d="M298.351 404.332L282.499 408.437C282.059 408.547 281.593 408.48 281.203 408.248C280.813 408.017 280.531 407.641 280.417 407.202C280.304 406.77 280.364 406.311 280.583 405.923C280.803 405.534 281.165 405.246 281.593 405.12L297.528 401.016C297.96 400.903 298.419 400.963 298.807 401.182C299.196 401.402 299.483 401.764 299.61 402.192C299.671 402.415 299.687 402.649 299.657 402.878C299.627 403.108 299.551 403.329 299.433 403.529C299.316 403.728 299.16 403.902 298.974 404.04C298.788 404.178 298.576 404.278 298.351 404.332Z" fill="#FFD5A4"/>
<path d="M217.878 189.101C217.595 189.806 217.748 190.547 218.207 190.747C218.665 190.947 219.277 190.536 219.559 189.83C219.841 189.124 219.7 188.383 219.23 188.184C218.76 187.984 218.172 188.395 217.878 189.101Z" fill="#263238"/>
<path d="M219.018 188.16L220.912 188.407C220.912 188.407 219.5 189.336 219.018 188.16Z" fill="#263238"/>
<path d="M218.207 190.042C218.188 191.935 218.426 193.822 218.912 195.651C218.443 195.751 217.958 195.747 217.491 195.64C217.024 195.532 216.586 195.323 216.208 195.028L218.207 190.042Z" fill="#ED893E"/>
<path d="M220.723 184.797C220.65 184.783 220.581 184.75 220.524 184.703C220.1 184.316 219.594 184.032 219.043 183.873C218.492 183.714 217.912 183.684 217.348 183.785C217.233 183.814 217.111 183.797 217.008 183.738C216.905 183.679 216.829 183.582 216.796 183.468C216.767 183.352 216.783 183.23 216.843 183.127C216.902 183.024 216.999 182.948 217.113 182.915C217.82 182.775 218.549 182.802 219.243 182.994C219.938 183.186 220.577 183.537 221.112 184.02C221.153 184.062 221.187 184.111 221.21 184.166C221.232 184.22 221.244 184.279 221.244 184.338C221.244 184.397 221.232 184.456 221.21 184.51C221.187 184.565 221.153 184.614 221.112 184.656C221.064 184.709 221.003 184.75 220.935 184.775C220.868 184.8 220.795 184.807 220.723 184.797Z" fill="#263238"/>
<path d="M192.946 188.736C193.452 194.463 191.547 203.836 187.219 207.023C187.219 207.023 190.477 213.044 200.908 214.444C212.374 215.984 206.988 209.528 206.988 209.528C200.884 207.176 201.543 202.625 203.083 198.438L192.946 188.736Z" fill="#FFB573"/>
<path d="M224.193 219.3C225.098 224.64 226.215 230.178 227.38 235.576C228.003 238.269 228.626 240.974 229.355 243.62C230.084 246.266 230.814 248.912 231.625 251.511C232.072 252.793 232.472 254.098 232.942 255.345L233.648 257.226L233.812 257.685V257.826C233.836 257.898 233.863 257.969 233.895 258.038C234.137 258.457 234.534 258.765 235 258.896C235.93 259.228 236.906 259.414 237.893 259.449C240.417 259.519 242.94 259.314 245.419 258.838C248.018 258.367 250.758 257.732 253.31 257.027L255.462 261.789C254.166 262.561 252.831 263.268 251.464 263.906C250.113 264.568 248.727 265.157 247.313 265.67C244.351 266.827 241.245 267.571 238.081 267.881C236.223 268.05 234.349 267.923 232.53 267.505C230.2 266.973 228.102 265.708 226.545 263.894C226.142 263.408 225.78 262.888 225.463 262.342C225.298 262.072 225.169 261.789 225.028 261.519L224.804 260.99L223.887 258.932C223.287 257.556 222.711 256.18 222.205 254.792C221.194 252.017 220.23 249.23 219.395 246.431C218.56 243.632 217.807 240.81 217.043 237.987C215.643 232.319 214.502 226.709 213.656 220.841L224.193 219.3Z" fill="#FFB573"/>
<path d="M252.181 257.356L256.721 253.757L258.767 260.743C258.767 260.743 252.558 265.235 250.9 259.955L252.181 257.356Z" fill="#FFB573"/>
<path d="M260.825 254.992L262.448 260.096L258.767 260.743L256.733 253.757L260.825 254.992Z" fill="#FFB573"/>
<path d="M176.012 479.114L185.502 479.82L188.313 458.029L178.823 457.323L176.012 479.114Z" fill="#FFB573"/>
<path d="M115.236 451.431L123.456 456.429L137.133 439.354L128.913 434.356L115.236 451.431Z" fill="#FFB573"/>
<path d="M129.195 458.946C129.078 458.964 128.959 458.964 128.843 458.946C127.667 458.946 126.267 457.111 125.562 456.029C125.536 455.993 125.522 455.95 125.522 455.906C125.522 455.861 125.536 455.818 125.562 455.782C125.584 455.745 125.618 455.715 125.657 455.696C125.697 455.677 125.741 455.67 125.785 455.677C126.173 455.759 129.572 456.476 130.019 457.605C130.066 457.73 130.081 457.865 130.06 457.997C130.04 458.129 129.985 458.254 129.901 458.358C129.743 458.631 129.493 458.84 129.195 458.946ZM126.255 456.276C127.255 457.687 128.208 458.522 128.854 458.534C128.995 458.536 129.134 458.499 129.256 458.429C129.378 458.359 129.479 458.257 129.548 458.134C129.58 458.085 129.596 458.028 129.596 457.97C129.596 457.911 129.58 457.854 129.548 457.805C129.36 457.205 127.608 456.606 126.255 456.288V456.276Z" fill="#FFD5A4"/>
<path d="M128.69 456.006C127.713 456.271 126.69 456.323 125.691 456.159C125.654 456.146 125.62 456.124 125.594 456.096C125.567 456.067 125.548 456.032 125.538 455.994C125.519 455.962 125.51 455.925 125.51 455.888C125.51 455.851 125.519 455.814 125.538 455.782C125.609 455.7 127.478 453.783 128.854 453.842C129.032 453.844 129.207 453.887 129.366 453.966C129.524 454.045 129.663 454.16 129.772 454.301C129.899 454.426 129.98 454.591 130.001 454.768C130.023 454.945 129.983 455.125 129.889 455.277C129.578 455.642 129.157 455.898 128.69 456.006ZM126.22 455.794C127.396 455.923 129.207 455.582 129.572 455.041C129.572 454.947 129.666 454.818 129.478 454.583C129.408 454.492 129.319 454.419 129.217 454.368C129.116 454.317 129.003 454.29 128.89 454.289C127.865 454.502 126.932 455.028 126.22 455.794Z" fill="#FFD5A4"/>
<path d="M125.926 454.595L118.129 447.092C118 446.959 117.827 446.879 117.643 446.866C117.459 446.853 117.276 446.908 117.13 447.021L110.473 452.148C110.313 452.291 110.185 452.466 110.097 452.661C110.009 452.857 109.963 453.069 109.963 453.283C109.963 453.498 110.009 453.71 110.097 453.905C110.185 454.101 110.313 454.276 110.473 454.418C113.237 456.994 114.695 458.099 118.117 461.404C120.234 463.438 123.104 466.613 126.02 469.424C128.937 472.235 131.783 469.577 130.818 468.154C126.467 461.78 127.114 459.393 126.726 456.135C126.643 455.545 126.361 455.002 125.926 454.595Z" fill="#263238"/>
<path d="M189.618 480.126C188.614 480.107 187.614 479.993 186.631 479.785C186.586 479.775 186.545 479.752 186.513 479.718C186.482 479.685 186.461 479.642 186.455 479.596C186.449 479.55 186.457 479.503 186.478 479.461C186.499 479.419 186.532 479.384 186.572 479.361C187.008 479.138 190.865 477.197 191.994 477.856C192.102 477.911 192.194 477.996 192.258 478.099C192.322 478.203 192.357 478.322 192.358 478.444C192.383 478.648 192.355 478.855 192.279 479.046C192.203 479.237 192.081 479.406 191.923 479.538C191.243 479.988 190.431 480.196 189.618 480.126ZM187.384 479.467C189.477 479.808 191.041 479.726 191.629 479.208C191.733 479.12 191.813 479.007 191.862 478.879C191.912 478.752 191.929 478.615 191.911 478.479C191.915 478.432 191.904 478.384 191.882 478.342C191.859 478.301 191.824 478.267 191.782 478.244C191.147 477.891 188.971 478.714 187.384 479.467Z" fill="#FFD5A4"/>
<path d="M186.678 479.808C186.636 479.82 186.591 479.82 186.549 479.808C186.514 479.786 186.487 479.754 186.47 479.716C186.454 479.679 186.448 479.637 186.455 479.596C186.455 479.432 186.913 475.551 189.042 475.551H189.218C189.842 475.61 190.018 475.915 190.053 476.174C190.23 477.244 187.925 479.302 186.772 479.82L186.678 479.808ZM189.03 475.962C187.666 475.962 187.125 478.22 186.96 479.185C188.136 478.479 189.701 476.833 189.595 476.221C189.595 476.162 189.595 476.009 189.16 475.974L189.03 475.962Z" fill="#FFD5A4"/>
<path d="M186.09 478.467H175.424C175.239 478.467 175.06 478.532 174.919 478.65C174.777 478.768 174.681 478.932 174.648 479.114L173.213 487.546C173.184 487.757 173.202 487.972 173.263 488.176C173.324 488.38 173.429 488.569 173.569 488.73C173.709 488.89 173.883 489.018 174.077 489.106C174.271 489.194 174.482 489.24 174.695 489.24C178.411 489.24 180.21 488.957 184.902 488.957C187.784 488.957 193.746 489.251 197.733 489.251C201.719 489.251 202.037 485.312 200.379 484.959C192.982 483.36 190.112 481.149 187.666 479.079C187.23 478.695 186.671 478.478 186.09 478.467Z" fill="#263238"/>
<path opacity="0.2" d="M188.313 458.029L186.749 470.141L177.364 468.565L178.823 457.335L188.313 458.029Z" fill="black"/>
<path opacity="0.2" d="M128.901 434.356L137.133 439.365L131.465 446.421L123.068 441.635L128.901 434.356Z" fill="black"/>
<path d="M171.226 264.2L209.646 269.363C224.534 215.478 220.147 214.032 220.147 214.032C218.454 213.225 216.705 212.541 214.914 211.986C213.103 211.327 211.272 210.727 209.422 210.186C205.726 209.089 201.968 208.214 198.168 207.564C190.792 206.296 183.295 205.874 175.824 206.306C175.075 206.358 174.348 206.579 173.696 206.951C173.044 207.324 172.485 207.839 172.061 208.458C171.901 208.687 171.763 208.931 171.649 209.187C171.231 210.082 171.068 211.075 171.179 212.056C174.424 240.374 173.378 249.688 171.226 264.2Z" fill="#9B5745"/>
<path opacity="0.2" d="M213.385 230.496C212.629 236.072 213.346 241.748 215.467 246.96C218.019 236.447 219.406 229.32 220.088 224.381C217.16 224.251 214.114 225.38 213.385 230.496Z" fill="black"/>
<path d="M219.806 213.844C226.392 217.607 230.966 226.58 232.342 231.79L218.324 244.608C218.324 244.608 211.057 227.709 211.645 222.464C212.233 217.219 217.325 212.421 219.806 213.844Z" fill="#9B5745"/>
<path d="M195.028 176.917C192.076 185.832 190.641 189.536 193.229 195.886C197.133 205.447 208.693 207.47 214.244 199.697C219.242 192.699 223.228 179.293 216.114 172.166C214.618 170.576 212.734 169.404 210.648 168.765C208.561 168.125 206.343 168.041 204.214 168.521C202.085 169.001 200.118 170.028 198.507 171.5C196.896 172.973 195.697 174.84 195.028 176.917Z" fill="#FFB573"/>
<path d="M209.646 184.82C209.025 186.455 208.927 188.242 209.363 189.936C209.951 192.288 211.715 192.488 212.809 190.971C213.903 189.454 214.644 186.714 213.468 184.738C212.292 182.762 210.41 183.021 209.646 184.82Z" fill="#FFB573"/>
<path d="M198.227 165.816C191.876 162.288 180.445 172.613 177.576 189.465C175.518 201.531 201.284 207.364 217.56 207.176C216.478 204.33 209.716 195.769 214.032 187.525C217.172 181.539 220.747 182.927 220.982 175.965C221.276 167.192 209.657 161.312 198.227 165.816Z" fill="#263238"/>
<path d="M212.68 169.603C220.065 168.885 227.485 176.141 221.982 183.374C220.638 182.296 219.073 181.526 217.398 181.12C215.724 180.713 213.98 180.68 212.292 181.022C208.916 181.774 212.68 169.603 212.68 169.603Z" fill="#263238"/>
<path d="M199.508 267.999C199.508 267.999 184.632 331.056 177.576 367.288C170.214 405.508 134.922 445.328 134.922 445.328L122.974 438.648C122.974 438.648 145.177 402.31 152.374 366.618C167.004 294.176 157.078 279.594 171.19 264.212L199.508 267.999Z" fill="#263238"/>
<path d="M136.146 446.445L121.175 438.107L123.362 433.685L140.156 441.412L136.146 446.445Z" fill="#FFD5A4"/>
<path opacity="0.2" d="M191.57 281.699C179.975 291.777 181.233 327.563 182.445 343.627C187.313 320.719 193.158 295.223 196.557 280.464C195.369 279.547 193.711 279.888 191.57 281.699Z" fill="black"/>
<path d="M209.081 269.386C209.081 269.386 215.796 344.262 212.127 372.816C208.317 402.521 188.936 467.142 188.936 467.142L175.224 465.378C175.224 465.378 186.349 401.334 188.325 371.934C190.477 339.864 180.916 265.611 180.916 265.611L209.081 269.386Z" fill="#263238"/>
<path d="M191.841 467.93L172.343 465.414L172.637 459.651L193.805 461.698L191.841 467.93Z" fill="#FFD5A4"/>
<path d="M170.885 261.883L168.791 265.07C168.627 265.317 168.921 265.623 169.356 265.682L209.657 271.091C210.01 271.091 210.316 271.009 210.351 270.797L211.068 267.434C211.068 267.199 210.833 266.952 210.457 266.905L171.543 261.684C171.425 261.659 171.303 261.664 171.188 261.699C171.073 261.734 170.969 261.798 170.885 261.883Z" fill="#FFD5A4"/>
<path opacity="0.5" d="M170.885 261.883L168.791 265.07C168.627 265.317 168.921 265.623 169.356 265.682L209.657 271.091C210.01 271.091 210.316 271.009 210.351 270.797L211.068 267.434C211.068 267.199 210.833 266.952 210.457 266.905L171.543 261.684C171.425 261.659 171.303 261.664 171.188 261.699C171.073 261.734 170.969 261.798 170.885 261.883Z" fill="black"/>
<path d="M175.659 266.952L174.612 266.811C174.401 266.811 174.26 266.658 174.283 266.529L175.248 262.154C175.248 262.036 175.471 261.954 175.671 261.978L176.718 262.119C176.929 262.119 177.07 262.272 177.047 262.401L176.082 266.776C176.059 266.846 175.859 266.952 175.659 266.952Z" fill="#263238"/>
<path d="M201.978 270.48L200.931 270.339C200.731 270.339 200.579 270.186 200.602 270.057L201.566 265.682C201.566 265.553 201.79 265.47 202.002 265.506L203.036 265.635C203.248 265.635 203.389 265.8 203.366 265.929L202.401 270.292C202.378 270.48 202.178 270.48 201.978 270.48Z" fill="#263238"/>
</g>
<defs>
<filter id="filter0_d_101_0" x="232.352" y="174.318" width="258.088" height="318.672" filterUnits="userSpaceOnUse" color-interpolation-filters="sRGB">
<feFlood flood-opacity="0" result="BackgroundImageFix"/>
<feColorMatrix in="SourceAlpha" type="matrix" values="0 0 0 0 0 0 0 0 0 0 0 0 0 0 0 0 0 0 127 0" result="hardAlpha"/>
<feOffset dy="4"/>
<feGaussianBlur stdDeviation="2"/>
<feColorMatrix type="matrix" values="0 0 0 0 0 0 0 0 0 0 0 0 0 0 0 0 0 0 0.25 0"/>
<feBlend mode="normal" in2="BackgroundImageFix" result="effect1_dropShadow_101_0"/>
<feBlend mode="normal" in="SourceGraphic" in2="effect1_dropShadow_101_0" result="shape"/>
</filter>
<filter id="filter1_d_101_0" x="105.963" y="164.264" width="210.644" height="332.988" filterUnits="userSpaceOnUse" color-interpolation-filters="sRGB">
<feFlood flood-opacity="0" result="BackgroundImageFix"/>
<feColorMatrix in="SourceAlpha" type="matrix" values="0 0 0 0 0 0 0 0 0 0 0 0 0 0 0 0 0 0 127 0" result="hardAlpha"/>
<feOffset dy="4"/>
<feGaussianBlur stdDeviation="2"/>
<feColorMatrix type="matrix" values="0 0 0 0 0 0 0 0 0 0 0 0 0 0 0 0 0 0 0.25 0"/>
<feBlend mode="normal" in2="BackgroundImageFix" result="effect1_dropShadow_101_0"/>
<feBlend mode="normal" in="SourceGraphic" in2="effect1_dropShadow_101_0" result="shape"/>
</filter>
</defs>
</svg>
