<svg width="631" height="581" viewBox="0 0 631 581" fill="none" xmlns="http://www.w3.org/2000/svg">
<path d="M232.327 115.38C306.476 69.9313 347.327 11.9086 442.743 1.31986C522.573 -7.54816 566.617 29.0159 593.787 88.5938C660.728 235.413 530.761 369.757 361.076 411.218C200.333 450.545 62.6767 382.662 12.1969 255.266C-6.8897 207.154 -13.6352 126.895 69.5252 115.794C130.509 107.736 169.163 154.128 232.327 115.38Z" fill="#FF9494"/>
<path opacity="0.9" d="M232.327 115.38C306.476 69.9313 347.327 11.9086 442.743 1.31986C522.573 -7.54816 566.617 29.0159 593.787 88.5938C660.728 235.413 530.761 369.757 361.076 411.218C200.333 450.545 62.6766 382.662 12.1968 255.266C-6.88971 207.154 -13.6352 126.895 69.5251 115.794C130.509 107.736 169.163 154.128 232.327 115.38Z" fill="white"/>
<path d="M329.369 580.885C162.903 580.885 27.9561 573.012 27.9561 563.299C27.9561 553.586 162.903 545.712 329.369 545.712C495.835 545.712 630.782 553.586 630.782 563.299C630.782 573.012 495.835 580.885 329.369 580.885Z" fill="#F5F5F5"/>
<path d="M388.846 130.204C388.846 130.204 385.224 117.34 364.362 122.094C343.5 126.848 360.102 142.757 360.102 142.757C360.102 142.757 345.816 152.203 350.231 171.296C355.33 193.373 342.349 198.003 348.676 208.023C355.003 218.044 398.034 225.796 425.751 210.26C442.432 200.939 419.176 173.767 422.549 161.26C427.555 142.617 413.657 124.238 388.846 130.204Z" fill="#263238"/>
<path d="M392.189 440.441L375.648 358.38C374.667 354.046 372.282 350.157 368.865 347.314C365.447 344.472 361.187 342.835 356.745 342.658H197.729C189.039 342.658 183.412 349.695 185.168 358.38L201.709 440.441C202.687 444.765 205.062 448.647 208.467 451.488C211.872 454.329 216.118 455.972 220.55 456.163H379.628C388.302 456.163 393.93 449.125 392.189 440.441Z" fill="#FF9494"/>
<path d="M435.203 219.582H407.221L363.787 432.424H391.769C450.593 432.424 508.003 384.76 519.989 325.988C531.974 267.215 494.027 219.582 435.203 219.582Z" fill="#FF9494"/>
<path d="M298.055 405.033C262.444 365.632 272.752 298.327 321.078 254.703C369.404 211.08 437.449 207.657 473.06 247.058C508.672 286.459 498.364 353.764 450.038 397.388C401.711 441.011 333.667 444.434 298.055 405.033Z" fill="#FF9494"/>
<path opacity="0.2" d="M298.055 405.033C262.444 365.632 272.752 298.327 321.078 254.703C369.404 211.08 437.449 207.657 473.06 247.058C508.672 286.459 498.364 353.764 450.038 397.388C401.711 441.011 333.667 444.434 298.055 405.033Z" fill="white"/>
<path d="M240.013 408.794L229.877 358.38C228.897 354.049 226.515 350.161 223.1 347.319C219.686 344.477 215.429 342.838 210.989 342.658H195.055C186.365 342.658 180.738 349.695 182.479 358.38L199.019 440.441C200.001 444.775 202.385 448.664 205.803 451.506C209.22 454.349 213.48 455.986 217.923 456.163H417.979V408.794H240.013Z" fill="#FF9494"/>
<path opacity="0.3" d="M240.013 408.794L229.877 358.38C228.897 354.049 226.515 350.161 223.1 347.319C219.686 344.477 215.429 342.838 210.989 342.658H195.055C186.365 342.658 180.738 349.695 182.479 358.38L199.019 440.441C200.001 444.775 202.385 448.664 205.803 451.506C209.22 454.349 213.48 455.986 217.923 456.163H417.979V408.794H240.013Z" fill="white"/>
<path d="M434.69 562.724H424.601L400.086 456.163H418.352L434.69 562.724Z" fill="#263238"/>
<path opacity="0.6" d="M434.69 562.724H424.601L400.086 456.163H418.352L434.69 562.724Z" fill="white"/>
<path d="M484.809 562.724H474.72L450.205 456.163H468.471L484.809 562.724Z" fill="#263238"/>
<path opacity="0.6" d="M484.809 562.724H474.72L450.205 456.163H468.471L484.809 562.724Z" fill="white"/>
<path d="M276.188 562.724H286.277L310.792 456.163H292.526L276.188 562.724Z" fill="#263238"/>
<path opacity="0.6" d="M276.188 562.724H286.277L310.792 456.163H292.526L276.188 562.724Z" fill="white"/>
<path d="M226.069 562.724H236.173L260.673 456.163H242.407L226.069 562.724Z" fill="#263238"/>
<path opacity="0.6" d="M226.069 562.724H236.173L260.673 456.163H242.407L226.069 562.724Z" fill="white"/>
<path d="M343.142 246.319C337.857 255.454 332.26 264.776 326.4 273.647C323.477 278.106 320.492 282.471 317.383 286.635C314.442 290.68 311.205 294.502 307.698 298.069C307.574 298.194 307.698 298.069 307.885 297.93C308.071 297.79 308.258 297.65 308.445 297.541C309.329 296.996 310.32 296.646 311.352 296.516C311.771 296.485 312.192 296.485 312.611 296.516C313.553 296.54 314.482 296.745 315.347 297.122C315.724 297.285 316.087 297.477 316.435 297.697C317.294 298.225 318.026 298.936 318.58 299.778C318.856 300.175 319.061 300.617 319.186 301.083C319.186 301.177 319.186 301.083 319.186 301.006C319 300.062 318.875 299.107 318.813 298.147C318.642 295.801 318.627 293.191 318.658 290.566C318.658 285.299 318.938 279.892 319.218 274.486L321.021 241.86L311.88 240.478C309.253 251.353 307.03 262.088 305.258 273.103C304.403 278.603 303.579 284.118 303.05 289.82C302.786 292.679 302.568 295.537 302.537 298.675C302.491 300.463 302.601 302.251 302.864 304.02C302.965 304.67 303.105 305.313 303.283 305.946C303.581 307.077 304.058 308.152 304.698 309.131C305.711 310.685 307.16 311.907 308.864 312.642C309.365 312.858 309.886 313.025 310.419 313.139C310.965 313.266 311.522 313.339 312.082 313.357C312.6 313.397 313.119 313.397 313.637 313.357C315.006 313.166 316.319 312.69 317.492 311.959C317.818 311.741 318.238 311.446 318.471 311.259L319.031 310.793C323.539 306.843 327.7 302.513 331.467 297.852C335.152 293.409 338.556 288.857 341.79 284.211C348.218 274.914 354.124 265.267 359.481 255.315L343.142 246.319Z" fill="#FFC3BD"/>
<path d="M351.692 228.904C339.256 231.001 329.151 268.24 329.447 267.448L353.34 289.696C353.34 289.696 368.077 267.51 365.994 256.402C363.818 244.89 361.486 227.35 351.692 228.904Z" fill="#FF9494"/>
<path opacity="0.4" d="M351.692 228.904C339.256 231.001 329.151 268.24 329.447 267.448L353.34 289.696C353.34 289.696 368.077 267.51 365.994 256.402C363.818 244.89 361.486 227.35 351.692 228.904Z" fill="black"/>
<path d="M338.012 253.062C339.178 269.002 342.676 295.863 351.475 341.073L426.575 338.851C424.601 311.135 427.586 290.488 434.348 242C434.641 239.904 434.509 237.771 433.959 235.727C433.409 233.683 432.452 231.771 431.146 230.105C429.84 228.439 428.212 227.053 426.358 226.03C424.505 225.007 422.464 224.367 420.357 224.15C415.538 223.652 410.05 223.233 404.547 223.14C391.878 222.907 381.524 222.798 370.44 224.15C366.787 224.6 362.994 225.175 359.387 225.781C353.068 226.857 347.376 230.248 343.424 235.293C339.472 240.337 337.542 246.672 338.012 253.062Z" fill="#FF9494"/>
<path opacity="0.3" d="M338.012 253.062C339.178 269.002 342.676 295.863 351.475 341.073L426.575 338.851C424.601 311.135 427.586 290.488 434.348 242C434.641 239.904 434.509 237.771 433.959 235.727C433.409 233.683 432.452 231.771 431.146 230.105C429.84 228.439 428.212 227.053 426.358 226.03C424.505 225.007 422.464 224.367 420.357 224.15C415.538 223.652 410.05 223.233 404.547 223.14C391.878 222.907 381.524 222.798 370.44 224.15C366.787 224.6 362.994 225.175 359.387 225.781C353.068 226.857 347.376 230.248 343.424 235.293C339.472 240.337 337.542 246.672 338.012 253.062Z" fill="black"/>
<path d="M400.023 184.859C398.189 195.89 396.65 216.04 404.547 223.14C404.547 223.14 385.271 233.223 372.632 250.809C359.123 240.12 370.44 224.15 370.44 224.15C382.581 220.871 382.006 211.798 379.612 203.347L400.023 184.859Z" fill="#FFC3BD"/>
<path opacity="0.2" d="M391.707 192.41L379.628 203.285C380.214 205.254 380.625 207.271 380.856 209.313C385.519 208.489 391.738 203.176 392.126 198.267C392.339 196.305 392.197 194.321 391.707 192.41V192.41Z" fill="black"/>
<path d="M412.273 164.227C408.978 182.28 407.967 189.986 397.645 198.22C382.099 210.649 360.678 202.601 358.517 183.927C356.574 167.133 362.294 140.426 380.965 135.331C385.078 134.184 389.417 134.108 393.568 135.109C397.72 136.111 401.546 138.157 404.683 141.052C407.821 143.948 410.165 147.597 411.494 151.654C412.822 155.71 413.09 160.038 412.273 164.227V164.227Z" fill="#FFC3BD"/>
<path d="M387.571 133.171C362.792 143.207 387.727 151.706 396.743 161.291C404.734 169.805 397.256 183.337 410.657 173.798C417.046 169.246 416.782 145.212 413.206 140.722C409.631 136.232 394.956 130.173 387.571 133.171Z" fill="#263238"/>
<path d="M381.229 166.977C381.042 168.531 380.125 169.572 379.146 169.448C378.166 169.323 377.591 168.049 377.716 166.558C377.84 165.066 378.819 163.979 379.799 164.088C380.778 164.196 381.4 165.501 381.229 166.977Z" fill="#263238"/>
<path d="M364.548 164.554C364.377 166.107 363.445 167.148 362.481 167.024C361.517 166.9 360.926 165.626 361.051 164.134C361.175 162.643 362.154 161.555 363.118 161.664C364.082 161.773 364.735 163.078 364.548 164.554Z" fill="#263238"/>
<path d="M363.569 161.804L360.133 160.344C360.133 160.344 361.595 163.342 363.569 161.804Z" fill="#263238"/>
<path d="M370.767 166.853C369.043 170.072 366.888 173.04 364.362 175.677C366.087 177.728 369.523 177.231 369.523 177.231L370.767 166.853Z" fill="#ED847E"/>
<path d="M376.907 184.067C376.17 184.083 375.432 184.047 374.7 183.958C374.642 183.952 374.587 183.935 374.536 183.908C374.486 183.88 374.441 183.843 374.405 183.798C374.369 183.754 374.342 183.702 374.326 183.647C374.31 183.592 374.305 183.534 374.311 183.476C374.333 183.363 374.396 183.261 374.487 183.19C374.579 183.118 374.693 183.082 374.809 183.088C376.647 183.356 378.523 183.184 380.282 182.588C382.041 181.991 383.633 180.986 384.929 179.655C385.003 179.566 385.109 179.511 385.224 179.5C385.34 179.49 385.454 179.526 385.543 179.6C385.631 179.674 385.687 179.781 385.697 179.896C385.707 180.011 385.671 180.125 385.597 180.214C384.478 181.402 383.133 182.354 381.641 183.016C380.149 183.678 378.539 184.035 376.907 184.067V184.067Z" fill="#263238"/>
<path d="M416.191 180.742C414.39 184.096 411.332 186.599 407.687 187.702C402.837 189.116 400.35 184.797 401.64 180.198C402.806 176.05 406.739 170.333 411.62 170.877C416.502 171.421 418.367 176.579 416.191 180.742Z" fill="#FFC3BD"/>
<path d="M388.613 163.031C388.43 163.036 388.251 162.982 388.1 162.879C387.95 162.776 387.835 162.628 387.774 162.456C386.374 158.65 381.353 157.236 381.307 157.221C381.083 157.159 380.893 157.012 380.777 156.812C380.661 156.611 380.627 156.373 380.685 156.149C380.713 156.037 380.764 155.933 380.834 155.842C380.904 155.751 380.992 155.674 381.092 155.618C381.192 155.561 381.303 155.525 381.417 155.513C381.531 155.5 381.647 155.51 381.757 155.543C382.006 155.543 387.727 157.205 389.406 161.851C389.46 161.981 389.48 162.122 389.466 162.262C389.452 162.402 389.404 162.536 389.326 162.653C389.247 162.77 389.141 162.865 389.017 162.931C388.892 162.997 388.754 163.032 388.613 163.031V163.031Z" fill="#263238"/>
<path d="M360.647 155.294C360.492 155.305 360.338 155.273 360.201 155.202C360.064 155.13 359.949 155.023 359.869 154.89C359.746 154.694 359.704 154.457 359.754 154.231C359.803 154.004 359.94 153.806 360.134 153.679C361.286 152.899 362.61 152.409 363.993 152.249C365.376 152.089 366.777 152.265 368.077 152.762C368.183 152.807 368.278 152.873 368.357 152.956C368.437 153.039 368.498 153.137 368.539 153.245C368.58 153.352 368.598 153.466 368.594 153.581C368.589 153.695 368.561 153.808 368.512 153.912C368.417 154.122 368.244 154.286 368.029 154.37C367.814 154.454 367.575 154.452 367.362 154.362C366.337 153.994 365.239 153.874 364.158 154.012C363.077 154.15 362.044 154.541 361.144 155.155C360.998 155.255 360.823 155.305 360.647 155.294V155.294Z" fill="#263238"/>
<path d="M343.065 543.77L326.104 550.155L306.812 510.71L323.757 504.324L343.065 543.77Z" fill="#FFC3BD"/>
<path d="M321.316 539.296L339.971 530.13C340.285 529.96 340.652 529.915 340.998 530.004C341.344 530.093 341.644 530.31 341.836 530.611L350.2 543.04C350.437 543.383 350.602 543.771 350.686 544.18C350.769 544.588 350.77 545.01 350.687 545.418C350.604 545.827 350.44 546.215 350.204 546.559C349.968 546.903 349.665 547.196 349.314 547.421C344.37 551.103 340.422 551.367 332.214 555.391C327.161 557.877 316.917 564.464 309.346 566.188C301.775 567.913 299.786 560.502 302.786 559.104C316.279 552.89 316.388 547.592 319.031 541.735C319.478 540.676 320.288 539.811 321.316 539.296V539.296Z" fill="#263238"/>
<g opacity="0.2">
<path opacity="0.2" d="M306.812 510.725L316.761 531.062L333.722 524.661L323.772 504.324L306.812 510.725Z" fill="black"/>
</g>
<path d="M219.151 512.077L203.154 503.563L220.084 463.045L233.344 485.557L219.151 512.077Z" fill="#FFC3BD"/>
<path d="M204.243 496.308L224.856 498.887C225.212 498.918 225.543 499.083 225.782 499.348C226.022 499.613 226.152 499.959 226.146 500.316V516.877C226.119 517.293 226.009 517.699 225.821 518.071C225.634 518.443 225.374 518.773 225.057 519.043C224.739 519.313 224.37 519.516 223.973 519.64C223.575 519.764 223.157 519.808 222.742 519.767C215.56 518.742 212.155 517.887 203.092 516.753C197.511 516.054 183.225 514.749 175.53 513.786C167.835 512.823 168.488 505.179 171.799 504.884C186.63 503.61 195.553 500.487 200.978 497.038C201.947 496.419 203.102 496.161 204.243 496.308V496.308Z" fill="#263238"/>
<g opacity="0.2">
<path opacity="0.2" d="M220.084 463.061L211.363 483.941L227.343 492.455L233.344 485.573L220.084 463.061Z" fill="black"/>
</g>
<path d="M380.218 164.227L376.783 162.783C376.783 162.783 378.275 165.766 380.218 164.227Z" fill="#263238"/>
<path d="M366.01 355.583C366.01 355.583 260.891 355.009 264.171 390.197C269.596 448.38 310.807 528.467 310.807 528.467L334.763 520.187C334.763 520.187 309.362 466.355 310.528 408.747H387.634C417.046 408.747 429.762 376.464 401.127 338.836C383.623 338.851 366.01 355.583 366.01 355.583Z" fill="black"/>
<path d="M427.57 334.408L429.684 341.073C429.964 341.586 429.373 342.129 428.503 342.16L351.133 344.46C350.449 344.46 349.889 344.165 349.827 343.73L348.956 337.034C348.956 336.568 349.469 336.164 350.2 336.132L426.249 333.88C426.496 333.842 426.749 333.871 426.982 333.963C427.214 334.056 427.417 334.21 427.57 334.408V334.408Z" fill="white"/>
<path d="M417.605 343.201H419.642C420.046 343.201 420.357 342.968 420.326 342.704L419.098 334.004C419.098 333.756 418.709 333.554 418.305 333.569H416.269C415.864 333.569 415.553 333.802 415.6 334.051L416.813 342.751C416.844 343.015 417.201 343.217 417.605 343.201Z" fill="#263238"/>
<path d="M356.962 345.019H358.999C359.403 345.019 359.698 344.786 359.667 344.522L358.455 335.822C358.455 335.573 358.05 335.371 357.646 335.387H355.61C355.206 335.387 354.91 335.62 354.941 335.868L356.154 344.568C356.185 344.833 356.543 345.019 356.962 345.019Z" fill="#263238"/>
<path d="M387.276 344.102H389.313C389.732 344.102 390.028 343.869 389.997 343.605L388.784 334.905C388.784 334.657 388.38 334.455 387.976 334.47H385.939C385.535 334.47 385.224 334.703 385.271 334.952L386.483 343.652C386.514 343.869 386.887 344.118 387.276 344.102Z" fill="#263238"/>
<path d="M377.669 339.768C377.669 339.768 247.413 312.052 241.77 345.159C231.945 402.766 211.098 476.515 211.098 476.515L232.038 490.761C232.038 490.761 264.684 422.155 283.478 367.717C306.051 374.941 371.668 408.794 397.909 408.794C427.337 408.794 438.483 382.507 425.611 339.271C408.107 339.209 377.669 339.768 377.669 339.768Z" fill="#263238"/>
<path d="M264.171 390.198C264.849 397.011 265.886 403.784 267.28 410.487C273.063 396.225 278.721 381.513 283.509 367.717C271.399 372.797 263.223 379.99 264.171 390.198Z" fill="black"/>
<path d="M512.045 358.38L495.504 440.441C494.523 444.775 492.139 448.664 488.721 451.506C485.304 454.349 481.044 455.986 476.601 456.163H419.782C411.107 456.163 405.48 449.125 407.221 440.441L423.762 358.38C424.743 354.046 427.127 350.157 430.545 347.314C433.962 344.472 438.222 342.835 442.665 342.658H499.484C508.143 342.658 513.786 349.695 512.045 358.38Z" fill="#FF9494"/>
<path d="M392.826 440.441L409.351 358.38C410.332 354.046 412.716 350.157 416.134 347.314C419.551 344.472 423.812 342.835 428.254 342.658H444.188C452.878 342.658 458.506 349.695 456.749 358.38L440.209 440.441C439.228 444.772 436.846 448.66 433.432 451.502C430.017 454.344 425.761 455.982 421.321 456.163H405.387C396.697 456.163 391.069 449.125 392.826 440.441Z" fill="#FF9494"/>
<path opacity="0.3" d="M392.826 440.441L409.351 358.38C410.332 354.046 412.716 350.157 416.134 347.314C419.551 344.472 423.812 342.835 428.254 342.658H444.188C452.878 342.658 458.506 349.695 456.749 358.38L440.209 440.441C439.228 444.772 436.846 448.66 433.432 451.502C430.017 454.344 425.761 455.982 421.321 456.163H405.387C396.697 456.163 391.069 449.125 392.826 440.441Z" fill="white"/>
<path d="M417.979 252.844C418.911 257.692 419.906 262.896 420.668 267.945C421.43 272.995 422.222 278.121 422.72 283.186C423.217 288.251 423.637 293.3 423.761 298.225C423.914 302.903 423.617 307.585 422.875 312.207L422.735 312.937C422.769 312.841 422.81 312.747 422.86 312.658C422.953 312.533 422.969 312.564 422.86 312.658C422.508 313.162 422.09 313.617 421.616 314.009C420.017 315.345 418.275 316.501 416.424 317.458C412.031 319.741 407.486 321.719 402.822 323.377C398.018 325.18 393.075 326.795 388.084 328.349C383.094 329.903 378.011 331.378 373.021 332.808L374.575 341.912C385.492 341.093 396.325 339.404 406.972 336.863C412.53 335.544 417.972 333.783 423.248 331.596C426.232 330.351 429.073 328.789 431.721 326.935C433.396 325.745 434.898 324.328 436.182 322.725C437.022 321.698 437.723 320.564 438.265 319.354C438.596 318.658 438.866 317.936 439.074 317.194L439.385 315.998C440.808 310.199 441.569 304.257 441.654 298.287C441.802 292.669 441.651 287.048 441.204 281.446C440.784 275.915 440.131 270.447 439.307 265.025C438.483 259.603 437.55 254.289 436.198 248.727L417.979 252.844Z" fill="#FFC3BD"/>
<path d="M427.555 227.474C435.079 229.696 444.406 255.532 444.406 255.532L415.367 276.63C415.367 276.63 404.485 255.082 407.594 245.341C410.781 235.196 418.942 224.926 427.555 227.474Z" fill="#FF9494"/>
<path opacity="0.3" d="M427.555 227.474C435.079 229.696 444.406 255.532 444.406 255.532L415.367 276.63C415.367 276.63 404.485 255.082 407.594 245.341C410.781 235.196 418.942 224.926 427.555 227.474Z" fill="black"/>
<path d="M350.34 332.777L357.646 329.452C359.465 328.614 361.513 328.411 363.46 328.877L380.669 332.994L382.97 338.789C380.498 345.578 368.979 344.677 368.979 344.677L359.807 347.784C359.074 348.035 358.283 348.061 357.535 347.859C356.787 347.657 356.117 347.236 355.61 346.65L348.941 338.882C348.538 338.422 348.251 337.873 348.101 337.281C347.952 336.688 347.945 336.069 348.082 335.473C348.218 334.877 348.494 334.322 348.887 333.854C349.279 333.385 349.777 333.016 350.34 332.777V332.777Z" fill="#FFC3BD"/>
<path d="M299.661 218.619L309.16 219.442C310.229 219.552 311.242 219.974 312.071 220.657C312.901 221.34 313.51 222.252 313.823 223.28L316.342 231.545C316.342 231.545 323.788 240.353 319.715 246.319L313.668 247.873L300.112 236.081C298.726 234.866 297.781 233.228 297.423 231.42L295.744 222.969C295.622 222.41 295.635 221.831 295.782 221.278C295.928 220.725 296.204 220.215 296.587 219.79C296.97 219.365 297.448 219.038 297.983 218.834C298.517 218.63 299.093 218.556 299.661 218.619V218.619Z" fill="#FFC3BD"/>
<path d="M298.029 212.358C298.029 218.139 300.327 223.683 304.417 227.77C308.507 231.858 314.055 234.155 319.839 234.155C325.624 234.155 331.172 231.858 335.262 227.77C339.352 223.683 341.65 218.139 341.65 212.358H298.029Z" fill="#FF9494"/>
<path d="M319.839 213.29C307.794 213.29 298.029 212.88 298.029 212.373C298.029 211.867 307.794 211.457 319.839 211.457C331.885 211.457 341.65 211.867 341.65 212.373C341.65 212.88 331.885 213.29 319.839 213.29Z" fill="#263238"/>
<path d="M300.236 231.016C301.734 231.016 303.198 230.573 304.443 229.741C305.688 228.91 306.658 227.728 307.231 226.346C307.804 224.963 307.954 223.442 307.662 221.974C307.37 220.507 306.649 219.159 305.59 218.1C304.531 217.042 303.182 216.322 301.713 216.03C300.245 215.738 298.723 215.888 297.339 216.46C295.956 217.033 294.774 218.003 293.942 219.247C293.11 220.491 292.666 221.954 292.666 223.45C292.67 225.456 293.469 227.378 294.888 228.796C296.307 230.214 298.23 231.012 300.236 231.016ZM300.236 217.438C301.426 217.438 302.59 217.791 303.579 218.451C304.568 219.112 305.339 220.051 305.795 221.15C306.25 222.248 306.369 223.457 306.137 224.623C305.905 225.79 305.332 226.861 304.49 227.702C303.649 228.543 302.577 229.115 301.41 229.347C300.243 229.579 299.033 229.46 297.934 229.005C296.835 228.55 295.895 227.779 295.234 226.791C294.573 225.802 294.22 224.64 294.22 223.45C294.224 221.857 294.86 220.33 295.987 219.204C297.114 218.077 298.642 217.442 300.236 217.438V217.438Z" fill="#FF9494"/>
<path d="M323.928 165.734C323.113 168.406 321.903 170.941 320.337 173.254C318.693 175.4 316.878 177.411 314.911 179.266C312.649 181.409 310.836 183.981 309.579 186.832C308.403 189.771 308.277 193.025 309.222 196.045C310.064 193.381 311.278 190.85 312.828 188.526C314.477 186.383 316.291 184.372 318.254 182.513C320.507 180.365 322.313 177.794 323.57 174.947C324.755 172.011 324.881 168.754 323.928 165.734V165.734Z" fill="#E0E0E0"/>
<path d="M330.457 174.839C329.632 177.509 328.416 180.042 326.851 182.358C325.207 184.509 323.392 186.525 321.425 188.386C319.165 190.521 317.357 193.089 316.109 195.936C314.919 198.877 314.787 202.138 315.735 205.165C316.574 202.5 317.788 199.968 319.342 197.645C320.97 195.499 322.763 193.484 324.705 191.617C326.958 189.469 328.765 186.898 330.022 184.051C331.228 181.123 331.382 177.867 330.457 174.839V174.839Z" fill="#E0E0E0"/>
<path d="M386.748 136.48C374.746 145.678 370.378 140.395 364.362 149.966C366.632 136.263 374.98 132.581 383.017 132.425C391.054 132.27 389.794 134.134 386.748 136.48Z" fill="#263238"/>
</svg>
