<svg width="62" height="215" viewBox="0 0 62 215" fill="none" xmlns="http://www.w3.org/2000/svg">
<path d="M56.3496 199.93C56.3606 199.255 56.2959 198.581 56.1568 197.92C54.9521 190.382 46.8358 185.115 40.8398 182.926H21.3372C15.5339 184.709 7.23171 190.382 6.027 197.913C5.88225 198.578 5.81526 199.257 5.82736 199.937C5.82148 200.049 5.82148 200.162 5.82736 200.274C6.06142 203.82 8.49838 207.324 13.1796 210.029C23.0513 215.729 39.0568 215.729 48.9286 210.029C53.6166 207.324 56.0467 203.833 56.2876 200.274C56.322 200.274 56.3496 200.047 56.3496 199.93Z" fill="#37474F"/>
<path d="M18.9415 184.083C12.2296 187.959 12.2296 194.237 18.9415 198.113C25.6535 201.988 36.5303 201.981 43.2354 198.113C49.9405 194.244 49.9474 187.959 43.2354 184.083C36.5234 180.207 25.6466 180.207 18.9415 184.083Z" fill="#455A64"/>
<path d="M35.601 117.748H26.5553V188.86H26.5966C26.4865 189.604 26.8995 190.368 27.8839 190.926C28.8764 191.432 29.9745 191.695 31.0885 191.695C32.2024 191.695 33.3005 191.432 34.293 190.926C35.2774 190.361 35.6698 189.597 35.5803 188.86H35.601V117.748Z" fill="#FFAEA3"/>
<path opacity="0.6" d="M35.601 117.748H26.5553V188.86H26.5966C26.4865 189.604 26.8995 190.368 27.8839 190.926C28.8764 191.432 29.9745 191.695 31.0885 191.695C32.2024 191.695 33.3005 191.432 34.293 190.926C35.2774 190.361 35.6698 189.597 35.5803 188.86H35.601V117.748Z" fill="white"/>
<path opacity="0.8" d="M60.7898 54.9721L57.9742 56.5967C57.8959 55.139 57.4748 53.7204 56.7452 52.4561C56.0155 51.1917 54.9979 50.1174 53.7749 49.3203H53.7336C53.3588 49.1012 52.9558 48.9345 52.5358 48.8246C51.9207 48.6583 51.2647 48.7425 50.7115 49.0587L53.5271 47.4409C54.2843 46.959 55.3583 47.0141 56.5423 47.7025H56.5905C57.811 48.5005 58.827 49.5742 59.5564 50.8369C60.2858 52.0996 60.7083 53.5161 60.7898 54.9721V54.9721Z" fill="#FFAEA3"/>
<path d="M57.9742 56.6036V80.0094C57.9742 80.1609 57.9742 80.3192 57.9742 80.4776C57.871 88.5182 55.0278 97.3298 50.5394 104.888C50.1401 105.577 49.7409 106.203 49.3209 106.844C44.1694 110.202 38.1892 112.07 32.0419 112.241C32.3379 111.993 32.9231 111.463 33.2053 111.201C42.6365 102.452 49.5343 87.7953 49.5343 75.1286V51.7228C49.484 51.2119 49.5658 50.6967 49.7719 50.2265C49.9781 49.7563 50.3016 49.3471 50.7115 49.038C50.9843 48.8785 51.2861 48.775 51.5994 48.7337C51.9126 48.6923 52.231 48.7138 52.5358 48.7971C52.9559 48.9097 53.3589 49.0788 53.7336 49.2996H53.7749C53.8851 49.3616 53.9883 49.4304 54.0916 49.4992C54.6185 49.8511 55.0976 50.27 55.5166 50.7453C57.0006 52.3474 57.871 54.4222 57.9742 56.6036Z" fill="#FFAEA3"/>
<path opacity="0.5" d="M57.9742 56.6036V80.0094C57.9742 80.1609 57.9742 80.3192 57.9742 80.4776C57.871 88.5182 55.0278 97.3298 50.5394 104.888C50.1401 105.577 49.7409 106.203 49.3209 106.844C44.1694 110.202 38.1892 112.07 32.0419 112.241C32.3379 111.993 32.9231 111.463 33.2053 111.201C42.6365 102.452 49.5343 87.7953 49.5343 75.1286V51.7228C49.484 51.2119 49.5658 50.6967 49.7719 50.2265C49.9781 49.7563 50.3016 49.3471 50.7115 49.038C50.9843 48.8785 51.2861 48.775 51.5994 48.7337C51.9126 48.6923 52.231 48.7138 52.5358 48.7971C52.9559 48.9097 53.3589 49.0788 53.7336 49.2996H53.7749C53.8851 49.3616 53.9883 49.4304 54.0916 49.4992C54.6185 49.8511 55.0976 50.27 55.5166 50.7453C57.0006 52.3474 57.871 54.4222 57.9742 56.6036Z" fill="white"/>
<path d="M60.7898 54.9858V81.6478C60.6658 87.369 59.4435 93.013 57.1894 98.2729C56.7626 99.2986 56.3152 100.338 55.8126 101.316C53.8959 103.445 51.7034 105.308 49.2934 106.857C49.7133 106.217 50.1126 105.57 50.5119 104.902C55.0003 97.3298 57.8434 88.5319 57.9467 80.4913C57.9467 80.333 57.9467 80.1747 57.9467 80.0232V56.6174L60.7898 54.9858Z" fill="#FFAEA3"/>
<path opacity="0.7" d="M60.7898 54.9858V81.6478C60.6658 87.369 59.4435 93.013 57.1894 98.2729C56.7626 99.2986 56.3152 100.338 55.8126 101.316C53.8959 103.445 51.7034 105.308 49.2934 106.857C49.7133 106.217 50.1126 105.57 50.5119 104.902C55.0003 97.3298 57.8434 88.5319 57.9467 80.4913C57.9467 80.333 57.9467 80.1747 57.9467 80.0232V56.6174L60.7898 54.9858Z" fill="white"/>
<path opacity="0.8" d="M60.7898 54.9721L57.9742 56.5967C57.8959 55.139 57.4748 53.7204 56.7452 52.4561C56.0155 51.1917 54.9979 50.1174 53.7749 49.3203H53.7336C53.3588 49.1012 52.9558 48.9345 52.5358 48.8246C51.9207 48.6583 51.2647 48.7425 50.7115 49.0587L53.5271 47.4409C54.2843 46.959 55.3583 47.0141 56.5423 47.7025H56.5905C57.811 48.5005 58.827 49.5742 59.5564 50.8369C60.2858 52.0996 60.7083 53.5161 60.7898 54.9721V54.9721Z" fill="white"/>
<path d="M3.24585 37.7619C3.24585 33.4662 6.08897 29.1706 11.7615 25.8937C23.1202 19.3332 41.5282 19.3332 52.88 25.8937C58.5525 29.1637 61.3887 33.4662 61.3956 37.7481C61.4025 42.03 58.5525 46.3326 52.88 49.6094C41.5282 56.163 23.1202 56.163 11.7615 49.6094C6.10963 46.3326 3.24585 42.0231 3.24585 37.7412V37.7619Z" fill="#FFAEA3"/>
<path opacity="0.5" d="M3.24585 37.7619C3.24585 33.4662 6.08897 29.1706 11.7615 25.8937C23.1202 19.3332 41.5282 19.3332 52.88 25.8937C58.5525 29.1637 61.3887 33.4662 61.3956 37.7481C61.4025 42.03 58.5525 46.3326 52.88 49.6094C41.5282 56.163 23.1202 56.163 11.7615 49.6094C6.10963 46.3326 3.24585 42.0231 3.24585 37.7412V37.7619Z" fill="black"/>
<path d="M3.24585 55.9221C3.24585 51.6608 6.10963 47.3308 11.7821 44.0884C23.1408 37.5347 41.5488 37.5347 52.9007 44.0884C58.5732 47.3652 61.4094 51.6608 61.4163 55.9496C61.4232 60.2384 58.5732 64.5341 52.9007 67.804C41.5488 74.3645 23.1408 74.3645 11.7821 67.804C6.10963 64.4927 3.24585 60.1971 3.24585 55.9014V55.9221Z" fill="#FFAEA3"/>
<path opacity="0.5" d="M3.24585 55.9221C3.24585 51.6608 6.10963 47.3308 11.7821 44.0884C23.1408 37.5347 41.5488 37.5347 52.9007 44.0884C58.5732 47.3652 61.4094 51.6608 61.4163 55.9496C61.4232 60.2384 58.5732 64.5341 52.9007 67.804C41.5488 74.3645 23.1408 74.3645 11.7821 67.804C6.10963 64.4927 3.24585 60.1971 3.24585 55.9014V55.9221Z" fill="black"/>
<path d="M3.24585 74.0478C3.24585 69.7522 6.08897 65.4565 11.7615 62.1797C23.1202 55.6261 41.5282 55.6261 52.88 62.1797C58.5525 65.4565 61.3887 69.7522 61.3956 74.0341C61.4025 78.316 58.5525 82.6185 52.88 85.8953C41.5282 92.449 23.1202 92.449 11.7615 85.8953C6.10963 82.6392 3.24585 78.3229 3.24585 74.0272V74.0478Z" fill="#FFAEA3"/>
<path opacity="0.5" d="M3.24585 74.0478C3.24585 69.7522 6.08897 65.4565 11.7615 62.1797C23.1202 55.6261 41.5282 55.6261 52.88 62.1797C58.5525 65.4565 61.3887 69.7522 61.3956 74.0341C61.4025 78.316 58.5525 82.6185 52.88 85.8953C41.5282 92.449 23.1202 92.449 11.7615 85.8953C6.10963 82.6392 3.24585 78.3229 3.24585 74.0272V74.0478Z" fill="black"/>
<path d="M51.3173 48.6938C51.0144 48.8659 50.7046 49.038 50.3948 49.1963C50.6924 49.5464 51.1031 49.7815 51.5557 49.8607C52.0083 49.9399 52.4743 49.8583 52.8731 49.63V49.63C53.7314 49.1367 54.559 48.5919 55.3514 47.9985C56.7951 46.9432 58.0735 45.6787 59.1445 44.2467C59.6184 43.5967 60.0331 42.9055 60.3836 42.1815C61.0359 40.8135 61.379 39.3187 61.3887 37.8032V47.2137C61.379 48.7292 61.0359 50.224 60.3836 51.592C60.0331 52.316 59.6184 53.0072 59.1445 53.6572V55.9358C59.1445 59.1232 57.4441 62.3036 54.0572 64.9953C53.1891 65.6918 52.2685 66.3201 51.3035 66.8746C50.9938 67.0467 50.6909 67.2188 50.3742 67.3772C50.672 67.729 51.0834 67.9655 51.5373 68.046C51.9911 68.1265 52.4588 68.0457 52.8593 67.8178V67.8178C53.7269 67.3176 54.5636 66.7659 55.3652 66.1656C56.7999 65.1172 58.0692 63.8594 59.1307 62.4344C59.6047 61.7844 60.0194 61.0932 60.3699 60.3692C61.0221 59.0012 61.3653 57.5064 61.3749 55.9909V65.4014C61.3649 66.9191 61.0218 68.4161 60.3699 69.7866C60.0181 70.51 59.6035 71.201 59.1307 71.8518V74.0823C59.1307 78.0406 56.501 82.0058 51.276 85.0279C50.9662 85.2069 50.6427 85.379 50.3191 85.5511C50.6172 85.9107 51.0323 86.154 51.4917 86.2383C51.951 86.3227 52.4255 86.2427 52.8318 86.0124V86.0124C55.2749 84.675 57.4111 82.8413 59.1032 80.629C59.5789 79.9802 59.9937 79.2888 60.3423 78.5638C60.9943 77.1933 61.3374 75.6963 61.3474 74.1786V83.1899C61.3474 83.5479 61.3474 83.8783 61.3474 84.2569C61.2798 86.2796 60.9983 88.2895 60.5075 90.2529C58.9304 96.5387 55.2986 102.118 50.1888 106.104C45.079 110.09 38.7841 112.255 32.3035 112.255C25.8229 112.255 19.528 110.09 14.4182 106.104C9.30842 102.118 5.67664 96.5387 4.09945 90.2529C3.60645 88.2897 3.32262 86.2799 3.25271 84.2569C3.25271 84.0779 3.25271 83.899 3.25271 83.7268C3.25271 83.5547 3.25271 83.3689 3.25271 83.1899V74.0754C3.24928 74.1373 3.24928 74.1993 3.25271 74.2612C3.29018 75.7181 3.63256 77.151 4.25779 78.4674C4.6101 79.2093 5.03436 79.9149 5.52446 80.5739C7.20844 82.7868 9.34086 84.6189 11.7821 85.9504C18.4734 89.8124 27.6154 91.4026 36.3031 90.7073C36.9443 90.6595 37.5683 90.478 38.135 90.1745C38.7017 89.8709 39.1986 89.4521 39.5937 88.945C30.5687 90.4044 20.4767 89.0827 13.3723 84.9866C8.29874 82.054 5.68279 78.2471 5.52446 74.4127V71.8174C5.04032 71.1583 4.62292 70.4526 4.27844 69.7109C3.65338 68.3968 3.31098 66.9662 3.27336 65.5116C3.26993 65.4497 3.26993 65.3876 3.27336 65.3257V55.9083C3.26993 55.9702 3.26993 56.0323 3.27336 56.0942C3.31098 57.5488 3.65338 58.9794 4.27844 60.2935C4.62292 61.0352 5.04032 61.7409 5.52446 62.4C6.58003 63.8216 7.84501 65.075 9.27628 66.1174C10.0769 66.7169 10.9137 67.2664 11.7821 67.7627C18.4665 71.6178 27.6155 73.208 36.2963 72.5196C36.928 72.4743 37.5434 72.2985 38.1039 72.0035C38.6643 71.7085 39.1575 71.3006 39.5524 70.8054C30.5343 72.258 20.4629 70.9362 13.393 66.8402C12.4292 66.2838 11.5087 65.6556 10.6393 64.9609C7.38315 62.3656 5.69656 59.3228 5.56576 56.2663V53.6228C5.0832 52.9651 4.66589 52.2618 4.31974 51.5232C3.69468 50.2091 3.35228 48.7785 3.31467 47.3239C3.31124 47.262 3.31124 47.1999 3.31467 47.138V37.7412C3.31124 37.8031 3.31124 37.8652 3.31467 37.9271C3.35228 39.3818 3.69468 40.8123 4.31974 42.1264C4.66785 42.8532 5.08511 43.5448 5.56576 44.1916C6.62946 45.6273 7.90357 46.8945 9.34512 47.9503C10.1265 48.5432 10.9401 49.0925 11.7821 49.5956C18.4665 53.4507 27.6155 55.0409 36.2963 54.3525C36.9264 54.3075 37.5403 54.1326 38.0995 53.8388C38.6587 53.545 39.151 53.1386 39.5456 52.6452C30.5274 54.0909 20.4629 52.776 13.3861 48.68C12.4221 48.1317 11.5015 47.5103 10.6324 46.8213C7.35562 44.226 5.66214 41.1764 5.53134 38.0992V35.4557C5.05069 34.8089 4.63343 34.1173 4.28532 33.3905C3.81505 32.4062 3.5037 31.3537 3.36286 30.272C3.30224 29.8525 3.27233 29.4292 3.27336 29.0053C3.27336 28.4477 3.27336 27.897 3.32155 27.3463C3.76306 19.9472 7.01347 12.9961 12.4085 7.91333C17.8036 2.83059 24.936 0 32.3483 0C39.7605 0 46.8929 2.83059 52.288 7.91333C57.683 12.9961 60.9334 19.9472 61.3749 27.3463C61.3749 27.897 61.4231 28.4477 61.4231 29.0122C61.4233 29.4289 61.3957 29.8452 61.3405 30.2582C61.1937 31.3409 60.8826 32.3948 60.4181 33.3836C60.0676 34.1077 59.6529 34.7988 59.1789 35.4488V37.7343C59.1789 40.9148 57.4717 44.109 54.0709 46.8144C53.1991 47.5059 52.2789 48.1339 51.3173 48.6938V48.6938Z" fill="#FFAEA3"/>
<g opacity="0.3">
<path opacity="0.3" d="M40.5859 49.7333C40.5869 50.7971 40.2196 51.8284 39.5464 52.6521C30.5283 54.0978 20.4638 52.7829 13.3869 48.6869C8.31338 45.7543 5.69743 41.9474 5.53909 38.1061V35.4626C5.60105 35.559 5.67677 35.6554 5.7525 35.7517C7.41309 37.8303 9.46694 39.5613 11.7967 40.8459C18.4467 44.6804 27.5131 46.2706 36.1663 45.6166C36.7314 45.577 37.2986 45.654 37.8327 45.8428C38.3667 46.0317 38.8562 46.3284 39.2707 46.7145C39.6852 47.1006 40.0159 47.5679 40.2421 48.0872C40.4684 48.6065 40.5854 49.1668 40.5859 49.7333Z" fill="black"/>
<path opacity="0.3" d="M59.1721 35.4695V37.755C59.1721 41.7134 56.5423 45.6717 51.3173 48.6938C51.0144 48.8659 50.7047 49.038 50.3949 49.1963C50.0632 48.8311 49.8813 48.3542 49.8854 47.8608V46.0434C49.8851 44.9942 50.161 43.9634 50.6855 43.0546C51.21 42.1459 51.9645 41.3912 52.8731 40.8666C55.2025 39.5843 57.2564 37.8556 58.9173 35.7793C59.0068 35.6691 59.0963 35.5659 59.1721 35.4695Z" fill="black"/>
<path opacity="0.3" d="M40.5851 67.9004C40.5864 68.961 40.2217 69.9895 39.5524 70.8123C30.5343 72.2649 20.4629 70.9431 13.393 66.8471C8.3194 63.9145 5.70345 60.1076 5.54512 56.2732V53.6297C5.60708 53.7261 5.6828 53.8224 5.75853 53.9188C7.41912 55.9974 9.47297 57.7284 11.8027 59.013C18.4528 62.8474 27.5191 64.4377 36.1724 63.7837C36.7369 63.745 37.3033 63.8228 37.8366 64.0121C38.3698 64.2014 38.8585 64.4983 39.2722 64.8843C39.686 65.2703 40.016 65.7372 40.2418 66.256C40.4677 66.7748 40.5845 67.3345 40.5851 67.9004Z" fill="black"/>
<path opacity="0.3" d="M59.1721 53.6366V55.9152C59.1721 59.8804 56.5423 63.8388 51.3173 66.854C51.0076 67.0261 50.7046 67.1982 50.388 67.3565C50.061 66.9916 49.8818 66.5179 49.8854 66.0279V64.2174C49.883 63.1677 50.158 62.1361 50.6827 61.227C51.2074 60.3178 51.9631 59.5636 52.8731 59.0406C55.2025 57.7583 57.2563 56.0296 58.9173 53.9532C59.0068 53.8362 59.0963 53.726 59.1721 53.6366Z" fill="black"/>
<path opacity="0.3" d="M40.585 86.0812C40.5877 87.1204 40.2383 88.1298 39.5937 88.945C30.5687 90.4044 20.4767 89.0827 13.3723 84.9866C8.29874 82.054 5.68279 78.2471 5.52446 74.4127V71.8174C5.58642 71.9069 5.65526 72.0033 5.73098 72.0928C7.38872 74.1786 9.44589 75.9128 11.7821 77.1939C18.4321 81.0352 27.4984 82.6254 36.1517 81.9714C36.7173 81.9298 37.2854 82.0052 37.8207 82.1927C38.3559 82.3803 38.8467 82.6761 39.2627 83.0616C39.6786 83.4472 40.0106 83.9143 40.2381 84.4338C40.4657 84.9533 40.5837 85.5141 40.585 86.0812V86.0812Z" fill="black"/>
<path opacity="0.3" d="M59.1721 71.8036V74.0341C59.1721 77.9924 56.5423 81.9576 51.3173 84.9797C51.0075 85.1587 50.684 85.3308 50.3604 85.5029C50.0556 85.135 49.8877 84.6728 49.8854 84.195V82.3363C49.8857 81.2978 50.1594 80.2777 50.679 79.3786C51.1987 78.4795 51.9459 77.7331 52.8456 77.2145H52.9007C55.2348 75.9276 57.2931 74.1944 58.9586 72.1134C59.0068 71.9964 59.1032 71.8931 59.1721 71.8036Z" fill="black"/>
</g>
<path d="M49.314 106.857C45.5003 112.736 40.6952 117.714 35.4633 120.722C26.8238 125.72 19.3064 125.334 15.5477 118.595C18.9071 119.125 22.831 118.271 27.0234 115.841C28.8154 114.822 30.4971 113.62 32.0419 112.254C38.1868 112.083 44.1645 110.215 49.314 106.857V106.857Z" fill="#FFAEA3"/>
<path opacity="0.6" d="M49.314 106.857C45.5003 112.736 40.6952 117.714 35.4633 120.722C26.8238 125.72 19.3064 125.334 15.5477 118.595C18.9071 119.125 22.831 118.271 27.0234 115.841C28.8154 114.822 30.4971 113.62 32.0419 112.254C38.1868 112.083 44.1645 110.215 49.314 106.857V106.857Z" fill="white"/>
<path d="M11.7132 117.28C10.6128 114.248 10.0762 111.04 10.1299 107.814V75.8239C10.0516 74.3663 9.63052 72.9476 8.90087 71.6833C8.17121 70.4189 7.15356 69.3446 5.93062 68.5475H5.88931C5.51269 68.3271 5.10722 68.1603 4.6846 68.0518C4.07147 67.8897 3.41925 67.9737 2.8672 68.2859C2.4648 68.5934 2.14656 68.9976 1.94198 69.4609C1.7374 69.9242 1.65311 70.4317 1.69691 70.9362V102.927C1.69691 111.36 4.67083 117.307 9.46903 120.137L17.964 125.045C15.0383 123.265 12.8271 120.518 11.7132 117.28Z" fill="#FFAEA3"/>
<path opacity="0.6" d="M11.7132 117.28C10.6128 114.248 10.0762 111.04 10.1299 107.814V75.8239C10.0516 74.3663 9.63052 72.9476 8.90087 71.6833C8.17121 70.4189 7.15356 69.3446 5.93062 68.5475H5.88931C5.51269 68.3271 5.10722 68.1603 4.6846 68.0518C4.07147 67.8897 3.41925 67.9737 2.8672 68.2859C2.4648 68.5934 2.14656 68.9976 1.94198 69.4609C1.7374 69.9242 1.65311 70.4317 1.69691 70.9362V102.927C1.69691 111.36 4.67083 117.307 9.46903 120.137L17.964 125.045C15.0383 123.265 12.8271 120.518 11.7132 117.28Z" fill="white"/>
<path d="M12.9524 74.1924L10.1299 75.817C10.0516 74.3603 9.63051 72.9426 8.9008 71.6794C8.17109 70.4161 7.15342 69.3431 5.93062 68.5475H5.88932C5.51144 68.328 5.10642 68.159 4.6846 68.0449C4.06853 67.8815 3.41284 67.9681 2.86032 68.2859L5.67591 66.6612C6.44004 66.1862 7.51396 66.2413 8.7049 66.9228H8.7462C9.96876 67.7193 10.9866 68.7924 11.7173 70.0554C12.4481 71.3183 12.8712 72.7356 12.9524 74.1924V74.1924Z" fill="#FFAEA3"/>
<path opacity="0.8" d="M12.9524 74.1924L10.1299 75.817C10.0516 74.3603 9.63051 72.9426 8.9008 71.6794C8.17109 70.4161 7.15342 69.3431 5.93062 68.5475H5.88932C5.51144 68.328 5.10642 68.159 4.6846 68.0449C4.06853 67.8815 3.41284 67.9681 2.86032 68.2859L5.67591 66.6612C6.44004 66.1862 7.51396 66.2413 8.7049 66.9228H8.7462C9.96876 67.7193 10.9866 68.7924 11.7173 70.0554C12.4481 71.3183 12.8712 72.7356 12.9524 74.1924V74.1924Z" fill="white"/>
<path d="M55.8333 101.316C55.2825 102.458 54.6951 103.585 54.0709 104.696C53.9126 104.978 53.7543 105.26 53.5959 105.529L53.1691 106.217C53.1278 106.279 53.0934 106.341 53.059 106.403C52.584 107.188 52.0814 107.973 51.5651 108.737C51.1796 109.301 50.7872 109.873 50.3811 110.423C49.9749 110.974 49.6927 111.353 49.3485 111.8C49.0043 112.248 48.5637 112.785 48.1713 113.273L47.6275 113.907C47.5104 114.037 47.4003 114.182 47.2832 114.313C47.063 114.574 46.8358 114.829 46.5948 115.077C45.4854 116.298 44.3136 117.46 43.084 118.56C42.8637 118.767 42.6434 118.96 42.3956 119.152L41.9068 119.558C41.0238 120.292 40.1048 120.982 39.1532 121.624C38.8916 121.81 38.6231 121.982 38.3615 122.161L37.8039 122.519L36.7713 123.145C29.4397 127.372 22.7759 127.764 17.9433 124.969C15.016 123.196 12.802 120.453 11.6857 117.218C10.6021 114.206 10.075 111.022 10.1299 107.821V75.817L12.9386 74.1993V106.045C12.9386 111.511 13.8748 115.683 15.5339 118.629C19.2926 125.369 26.81 125.754 35.4495 120.756C35.7249 120.598 36.0003 120.44 36.2687 120.268L36.6198 120.047C36.847 119.91 37.0604 119.758 37.3082 119.614L37.6249 119.393C37.8796 119.221 38.1274 119.042 38.3753 118.863L39.2082 118.23L39.3115 118.147C39.6213 117.899 39.9311 117.652 40.2408 117.39C40.5506 117.128 40.8535 116.867 41.1495 116.598L41.2528 116.516L42.0238 115.827L42.2372 115.621C42.4782 115.394 42.7053 115.16 42.9256 114.932C43.1459 114.705 43.5108 114.34 43.793 114.031C44.9561 112.789 46.0522 111.486 47.0767 110.127C47.3177 109.811 47.5517 109.487 47.7651 109.164L47.8615 109.033C48.1093 108.702 48.3503 108.344 48.5499 108.014C48.7496 107.683 49.0525 107.325 49.2796 106.926C51.7066 105.359 53.911 103.472 55.8333 101.316V101.316Z" fill="#FFAEA3"/>
<path opacity="0.75" d="M55.8333 101.316C55.2825 102.458 54.6951 103.585 54.0709 104.696C53.9126 104.978 53.7543 105.26 53.5959 105.529L53.1691 106.217C53.1278 106.279 53.0934 106.341 53.059 106.403C52.584 107.188 52.0814 107.973 51.5651 108.737C51.1796 109.301 50.7872 109.873 50.3811 110.423C49.9749 110.974 49.6927 111.353 49.3485 111.8C49.0043 112.248 48.5637 112.785 48.1713 113.273L47.6275 113.907C47.5104 114.037 47.4003 114.182 47.2832 114.313C47.063 114.574 46.8358 114.829 46.5948 115.077C45.4854 116.298 44.3136 117.46 43.084 118.56C42.8637 118.767 42.6434 118.96 42.3956 119.152L41.9068 119.558C41.0238 120.292 40.1048 120.982 39.1532 121.624C38.8916 121.81 38.6231 121.982 38.3615 122.161L37.8039 122.519L36.7713 123.145C29.4397 127.372 22.7759 127.764 17.9433 124.969C15.016 123.196 12.802 120.453 11.6857 117.218C10.6021 114.206 10.075 111.022 10.1299 107.821V75.817L12.9386 74.1993V106.045C12.9386 111.511 13.8748 115.683 15.5339 118.629C19.2926 125.369 26.81 125.754 35.4495 120.756C35.7249 120.598 36.0003 120.44 36.2687 120.268L36.6198 120.047C36.847 119.91 37.0604 119.758 37.3082 119.614L37.6249 119.393C37.8796 119.221 38.1274 119.042 38.3753 118.863L39.2082 118.23L39.3115 118.147C39.6213 117.899 39.9311 117.652 40.2408 117.39C40.5506 117.128 40.8535 116.867 41.1495 116.598L41.2528 116.516L42.0238 115.827L42.2372 115.621C42.4782 115.394 42.7053 115.16 42.9256 114.932C43.1459 114.705 43.5108 114.34 43.793 114.031C44.9561 112.789 46.0522 111.486 47.0767 110.127C47.3177 109.811 47.5517 109.487 47.7651 109.164L47.8615 109.033C48.1093 108.702 48.3503 108.344 48.5499 108.014C48.7496 107.683 49.0525 107.325 49.2796 106.926C51.7066 105.359 53.911 103.472 55.8333 101.316V101.316Z" fill="white"/>
<path d="M5.63461 71.1428C5.34507 70.9321 5.00341 70.8047 4.64665 70.7744C4.28989 70.7441 3.93163 70.8119 3.61069 70.9707L0.932785 72.5196L4.84294 79.445L7.52084 77.896L7.72048 77.7859C7.96735 77.5682 8.15862 77.2947 8.27837 76.9882C8.39812 76.6816 8.44287 76.3509 8.40889 76.0236C8.35961 75.0499 8.08301 74.1013 7.60125 73.2538C7.1195 72.4062 6.44597 71.6832 5.63461 71.1428Z" fill="#455A64"/>
<path d="M5.63461 77.6413C5.66918 77.9847 5.61446 78.3312 5.47576 78.6472C5.33706 78.9632 5.11908 79.238 4.84294 79.445C4.52199 79.6037 4.16373 79.6715 3.80697 79.6412C3.45021 79.6109 3.10856 79.4835 2.81902 79.2729C1.99946 78.7348 1.31812 78.0113 0.83016 77.161C0.342202 76.3106 0.0613418 75.3573 0.010318 74.3783C-0.0239676 74.0423 0.0275147 73.7032 0.159949 73.3926C0.292383 73.082 0.501442 72.81 0.767568 72.6022L0.932784 72.5058C1.24397 72.3903 1.57878 72.3532 1.90771 72.3976C2.23665 72.442 2.54961 72.5666 2.81902 72.7605C3.64073 73.2936 4.32434 74.0139 4.81377 74.8623C5.30321 75.7108 5.58451 76.6631 5.63461 77.6413V77.6413Z" fill="#37474F"/>
<path d="M4.45054 76.9529C4.45439 77.0286 4.45439 77.1044 4.45054 77.1801C4.44498 77.3421 4.40163 77.5005 4.32393 77.6428C4.24624 77.785 4.13636 77.9071 4.00308 77.9993C3.81772 78.0927 3.60998 78.1325 3.40323 78.1143C3.19648 78.096 2.99892 78.0205 2.83279 77.896C2.35284 77.5892 1.95273 77.1726 1.66547 76.6806C1.37821 76.1887 1.21202 75.6355 1.18061 75.0667C1.16145 74.8721 1.19106 74.6758 1.26678 74.4955C1.3425 74.3152 1.46194 74.1566 1.6143 74.0341L1.71068 73.979C1.85587 73.9229 2.01131 73.8981 2.16675 73.9064C2.3222 73.9147 2.47412 73.9559 2.6125 74.0272C2.67938 74.0538 2.74387 74.086 2.80525 74.1236C3.28391 74.4312 3.68268 74.8482 3.96871 75.3401C4.25475 75.832 4.41989 76.3847 4.45054 76.9529Z" fill="#263238"/>
<path d="M4.45054 76.9529C4.45439 77.0286 4.45439 77.1044 4.45054 77.1801L4.25779 77.0837C3.78397 76.7721 3.38964 76.3539 3.10634 75.8626C2.82304 75.3713 2.65863 74.8206 2.62626 74.2544C2.62259 74.1833 2.62259 74.112 2.62626 74.041C2.69315 74.0675 2.75764 74.0998 2.81902 74.1373C3.29331 74.4452 3.68826 74.8606 3.97175 75.3499C4.25525 75.8391 4.41929 76.3883 4.45054 76.9529V76.9529Z" fill="black"/>
<path opacity="0.2" d="M54.9796 16.7242C50.9662 8.04334 42.251 3.52738 32.9506 3.49985C30.3347 3.49985 27.6155 3.84405 25.3781 5.23463C23.1408 6.62522 21.5506 9.24805 22.0049 11.8296C22.4317 14.2803 24.4901 16.0702 26.4176 17.6466L40.1238 28.8332C43.0564 31.2289 46.5191 33.776 50.2503 33.122C53.4927 32.5506 55.9296 29.5354 56.563 26.2999C57.1963 23.0644 56.3565 19.7118 54.9796 16.7242Z" fill="white"/>
</svg>
