<svg width="167" height="218" viewBox="0 0 167 218" fill="none" xmlns="http://www.w3.org/2000/svg">
<path d="M124.063 97.1215C123.838 97.2128 123.612 97.2981 123.399 97.4077C123.186 97.5173 123.052 97.5903 122.888 97.6817C122.724 97.773 122.474 97.9191 122.279 98.047C122.084 98.1748 121.956 98.2723 121.798 98.394C121.64 98.5158 121.427 98.6863 121.244 98.8446C121.061 99.0029 120.952 99.1064 120.812 99.2464C120.672 99.3865 120.471 99.5935 120.306 99.7761C120.142 99.9588 120.045 100.087 119.917 100.245C119.789 100.403 119.612 100.647 119.466 100.854C119.32 101.061 119.241 101.183 119.137 101.353L119.064 101.475C118.949 101.67 118.839 101.871 118.736 102.084C118.699 102.145 118.669 102.205 118.638 102.266C118.553 102.431 118.468 102.601 118.395 102.772C118.322 102.942 118.261 103.076 118.2 103.228C118.139 103.381 118.115 103.417 118.078 103.521L117.968 103.795C117.895 103.989 117.828 104.19 117.767 104.403C117.707 104.617 117.652 104.757 117.603 104.933C117.512 105.256 117.42 105.585 117.347 105.926C117.291 106.153 117.242 106.384 117.201 106.62C117.201 106.747 117.153 106.869 117.128 107.003C117.104 107.137 117.079 107.277 117.061 107.423C117.006 107.764 116.97 108.124 116.933 108.483C116.933 108.653 116.891 108.818 116.879 108.988C116.879 109.055 116.879 109.116 116.879 109.183C116.836 109.792 116.812 110.364 116.812 110.979C116.829 113.458 117.125 115.927 117.694 118.34C119.959 128.295 126.431 138.584 134.347 144.472C135.274 145.174 136.242 145.82 137.245 146.408L137.659 146.634C137.89 146.761 138.121 146.895 138.353 147.011L138.883 147.273L139.455 147.547L140.033 147.796L140.539 148.003C140.74 148.083 140.934 148.156 141.147 148.223L141.628 148.387L142.207 148.57L142.718 148.704L143.242 148.838L143.936 148.972L144.259 149.032L144.533 149.063L148.685 146.676C146.112 146.263 143.642 145.36 141.409 144.015C130.085 137.489 120.952 121.597 120.952 108.568C120.952 103.277 122.462 99.2708 125.007 96.7988L124.605 96.9145C124.416 96.9754 124.24 97.0485 124.063 97.1215Z" fill="#263238"/>
<path d="M127.728 92.7134C127.096 92.9342 126.485 93.2113 125.902 93.5415L121.768 95.9282C123.588 94.8986 125.637 94.3437 127.728 94.3147V92.7134Z" fill="#37474F"/>
<path d="M144.265 149.032L143.942 148.972L143.248 148.838L142.724 148.704L142.383 148.618L142.213 148.57L141.653 148.387L141.172 148.223L140.563 148.003L140.058 147.796L139.479 147.547L138.907 147.273L138.377 147.011C138.146 146.895 137.908 146.761 137.671 146.627C137.543 146.554 137.409 146.493 137.275 146.414C136.308 145.845 135.373 145.223 134.474 144.551C131.897 142.631 129.56 140.407 127.515 137.927C125.749 135.799 124.164 133.526 122.778 131.132C120.489 127.208 118.784 122.97 117.719 118.553L117.682 118.346C117.114 115.937 116.818 113.472 116.799 110.997C116.799 110.425 116.799 109.871 116.86 109.323C116.86 109.244 116.86 109.165 116.86 109.085C116.857 109.031 116.857 108.976 116.86 108.921C116.897 108.464 116.945 108.014 117.012 107.576L117.049 107.295C117.049 107.149 117.104 107.015 117.128 106.869C117.153 106.723 117.207 106.467 117.25 106.26C117.293 106.053 117.335 105.834 117.384 105.652C117.433 105.469 117.506 105.213 117.573 104.994C117.573 104.909 117.615 104.824 117.64 104.744C117.664 104.665 117.64 104.677 117.67 104.647C117.725 104.47 117.78 104.288 117.841 104.111C117.901 103.935 117.999 103.697 118.084 103.502C118.169 103.307 118.291 102.973 118.413 102.717C118.535 102.461 118.589 102.364 118.681 102.187L118.79 101.98C118.888 101.798 118.991 101.621 119.095 101.444C119.198 101.268 119.296 101.134 119.399 100.982L119.539 100.781C119.612 100.665 119.691 100.555 119.771 100.452L119.959 100.214C120.014 100.148 120.063 100.074 120.124 100.007L120.459 99.6239L120.574 99.5082C120.714 99.3621 120.854 99.216 121.007 99.0759C121.074 99.0151 121.153 98.9603 121.22 98.9055C121.402 98.7472 121.585 98.5949 121.774 98.4549C121.962 98.3149 122.09 98.2175 122.255 98.1079C122.419 97.9983 122.657 97.8582 122.864 97.7426C123.071 97.6269 123.198 97.5538 123.375 97.4686C123.552 97.3833 123.813 97.2737 124.039 97.1824C124.264 97.0911 124.392 97.0363 124.574 96.9754C124.757 96.9145 124.848 96.8902 124.988 96.8475L125.299 96.7684C125.482 96.7258 125.664 96.671 125.853 96.6344C126.042 96.5979 126.389 96.5492 126.657 96.5188C126.925 96.4883 127.016 96.464 127.205 96.4518C127.393 96.4396 127.533 96.4518 127.704 96.4518V94.406C125.613 94.4351 123.563 94.9899 121.743 96.0195V96.0195C121.488 96.1717 121.238 96.33 120.988 96.5005L120.86 96.5857C120.149 97.0927 119.494 97.6744 118.906 98.321L118.705 98.5402C118.529 98.7411 118.358 98.9481 118.188 99.149L118.041 99.3621C117.759 99.742 117.497 100.136 117.256 100.543C117.171 100.695 117.079 100.848 116.994 101.006C116.909 101.164 116.781 101.408 116.678 101.615C116.574 101.822 116.483 102.035 116.385 102.224C116.288 102.412 116.203 102.65 116.117 102.869C115.984 103.21 115.862 103.563 115.746 103.922C115.697 104.093 115.643 104.269 115.594 104.446C115.509 104.75 115.429 105.055 115.35 105.378C115.314 105.536 115.277 105.688 115.247 105.846C115.145 106.309 115.06 106.784 114.991 107.271C114.991 107.393 114.961 107.515 114.948 107.63C114.894 108.044 114.851 108.458 114.821 108.848C114.821 109 114.821 109.152 114.79 109.305C114.754 109.847 114.735 110.395 114.735 110.955C114.785 114.567 115.361 118.152 116.446 121.597C117.003 123.422 117.666 125.213 118.431 126.961C118.837 127.846 119.243 128.721 119.649 129.586C120.966 132.185 122.496 134.671 124.221 137.02C127.649 141.677 131.783 145.629 136.228 148.192C137.993 149.243 139.886 150.061 141.86 150.628L144.514 149.105L144.265 149.032Z" fill="#455A64"/>
<path d="M165.1 128.362C165.1 116.453 156.74 101.974 146.426 96.0195C141.251 93.0361 136.575 92.7621 133.196 94.7287C132.167 95.3376 125.281 99.3012 124.227 99.8918C120.83 101.834 118.748 106.023 118.748 111.996C118.748 123.905 127.107 138.384 137.421 144.338C142.584 147.322 147.26 147.596 150.639 145.635C151.675 145.026 158.615 141.044 159.657 140.441C163.011 138.493 165.1 134.31 165.1 128.362Z" fill="#FFD5CF"/>
<path opacity="0.3" d="M165.1 128.362C165.1 116.453 156.74 101.974 146.426 96.0195C141.251 93.0361 136.575 92.7621 133.196 94.7287C132.167 95.3376 125.281 99.3012 124.227 99.8918C120.83 101.834 118.748 106.023 118.748 111.996C118.748 123.905 127.107 138.384 137.421 144.338C142.584 147.322 147.26 147.596 150.639 145.635C151.675 145.026 158.615 141.044 159.657 140.441C163.011 138.493 165.1 134.31 165.1 128.362Z" fill="black"/>
<path d="M137.391 101.213C147.699 107.168 156.058 121.652 156.058 133.555C156.058 145.458 147.741 150.293 137.391 144.338C127.04 138.384 118.717 123.905 118.717 111.996C118.717 100.087 127.089 95.2584 137.391 101.213Z" fill="#FFD5CF"/>
<path d="M145.306 149.154H145.397C145.714 149.154 146.006 149.191 146.335 149.197H146.487C146.935 149.198 147.382 149.172 147.827 149.118H147.875C148.248 149.069 148.618 148.999 148.983 148.911C149.136 148.88 149.294 148.844 149.446 148.801C149.732 148.722 150.018 148.631 150.299 148.527C150.579 148.424 150.719 148.357 150.907 148.259C151.011 148.217 151.102 148.168 151.2 148.119C152.095 147.666 152.917 147.079 153.635 146.378C152.014 146.825 150.317 146.927 148.655 146.676L144.502 149.063C144.794 149.099 145.05 149.136 145.306 149.154Z" fill="#263238"/>
<path d="M142.438 97.6817C142.544 99.278 143.233 100.78 144.374 101.901C153.27 110.078 159.772 123.351 159.772 134.596C159.772 142.779 156.338 148.6 150.725 150.555C151.442 150.321 152.13 150.006 152.777 149.617L156.911 147.23C161.307 144.697 163.925 139.315 163.925 132.198C163.925 120.958 157.416 107.679 148.521 99.5082C147.383 98.3846 146.694 96.8842 146.585 95.2889V78.722L142.438 81.1208L140.392 79.9397L142.438 81.1208V97.6817Z" fill="#37474F"/>
<path d="M144.374 101.901C143.233 100.78 142.544 99.278 142.438 97.6817V81.1208L140.392 79.9397V98.6741C140.398 98.9238 140.426 99.1725 140.478 99.4169L140.514 99.5995C140.572 99.8599 140.648 100.116 140.74 100.367C140.888 100.755 141.069 101.13 141.281 101.487L141.452 101.737C141.61 101.989 141.789 102.227 141.988 102.449C142.108 102.588 142.238 102.718 142.377 102.839C142.871 103.271 143.352 103.721 143.826 104.178L144.204 104.55C144.618 104.964 145.026 105.384 145.422 105.822L145.604 106.011C146.055 106.504 146.493 107.009 146.932 107.533L147.26 107.935C147.62 108.373 147.973 108.824 148.314 109.274L148.563 109.603C148.971 110.145 149.367 110.705 149.751 111.265L150.018 111.673C150.335 112.142 150.627 112.623 150.938 113.104L151.194 113.518C151.553 114.127 151.894 114.699 152.229 115.302L152.417 115.661C152.691 116.166 152.959 116.678 153.215 117.195L153.452 117.676C153.753 118.289 154.039 118.91 154.311 119.54C154.341 119.625 154.378 119.704 154.408 119.789C154.646 120.343 154.871 120.903 155.09 121.47C155.151 121.64 155.218 121.804 155.279 121.975C155.516 122.584 155.742 123.26 155.943 123.899C156.144 124.538 156.332 125.19 156.503 125.835L156.612 126.249C156.771 126.858 156.917 127.503 157.045 128.13L157.099 128.447C157.213 129.023 157.31 129.596 157.392 130.164C157.392 130.268 157.422 130.377 157.44 130.481C157.52 131.089 157.587 131.698 157.629 132.307C157.629 132.441 157.629 132.575 157.66 132.709C157.696 133.318 157.727 133.963 157.727 134.578C157.727 138.231 157.002 141.276 155.705 143.656C155.427 144.166 155.112 144.654 154.761 145.117C154.591 145.343 154.414 145.562 154.232 145.769C154.049 145.976 153.86 146.171 153.665 146.378C152.947 147.079 152.126 147.666 151.23 148.119C151.139 148.168 151.041 148.217 150.938 148.259C150.737 148.357 150.53 148.448 150.329 148.527C150.128 148.606 149.805 148.71 149.544 148.783H149.477C149.324 148.825 149.172 148.862 149.014 148.892L148.74 148.965C148.466 149.02 148.186 149.063 147.906 149.099H147.857C147.413 149.154 146.965 149.18 146.518 149.179H146.171C145.927 149.179 145.677 149.179 145.428 149.136H145.306C145.05 149.136 144.794 149.087 144.533 149.051L141.878 150.573C143.351 150.998 144.875 151.219 146.408 151.23C146.615 151.23 146.816 151.23 147.017 151.2C147.218 151.169 147.571 151.2 147.827 151.157L148.295 151.09C148.594 151.048 148.904 151.005 149.166 150.95C149.306 150.95 149.446 150.889 149.586 150.853L149.757 150.804C150.018 150.737 150.28 150.676 150.536 150.591L150.719 150.536C156.332 148.6 159.766 142.761 159.766 134.578C159.772 123.351 153.27 110.078 144.374 101.901Z" fill="#455A64"/>
<path d="M133.129 96.7806L133.214 96.744C133.264 96.7259 133.311 96.7013 133.354 96.671L137.506 94.2721C137.774 94.1019 137.99 93.8627 138.132 93.5798C138.275 93.2969 138.338 92.9807 138.316 92.6647V73.9303L134.17 76.3292V95.0636C134.2 95.423 134.115 95.7825 133.928 96.0909C133.741 96.3992 133.461 96.6406 133.129 96.7806V96.7806Z" fill="#37474F"/>
<path d="M128.124 94.3086C129.121 94.3127 130.115 94.4064 131.095 94.5887C131.216 94.6216 131.343 94.6254 131.465 94.5998C131.588 94.5742 131.702 94.52 131.8 94.4416C131.897 94.3632 131.974 94.2628 132.026 94.1487C132.077 94.0345 132.1 93.9099 132.094 93.785V91.9219C130.605 91.9394 129.129 92.207 127.728 92.7134V94.333C127.862 94.3269 127.99 94.3086 128.124 94.3086Z" fill="#37474F"/>
<path d="M128.648 96.3665C129.141 96.3848 129.633 96.4295 130.121 96.5005C130.596 96.5735 131.083 96.671 131.57 96.7927H131.662H131.71C131.866 96.8304 132.025 96.8569 132.185 96.8719H132.228C132.359 96.8842 132.492 96.8842 132.623 96.8719H132.697C132.821 96.8515 132.943 96.821 133.062 96.7806V96.7806C133.394 96.6406 133.674 96.3992 133.861 96.0909C134.048 95.7825 134.133 95.423 134.103 95.0636V76.3291L132.057 75.1114V93.7545C132.064 93.8795 132.04 94.0041 131.989 94.1182C131.938 94.2323 131.86 94.3327 131.763 94.4111C131.666 94.4896 131.551 94.5438 131.429 94.5693C131.306 94.5949 131.179 94.5911 131.059 94.5582C130.079 94.3759 129.084 94.2822 128.088 94.2782C127.954 94.2782 127.826 94.2782 127.692 94.2782V96.3239C127.838 96.3239 127.978 96.3239 128.124 96.3239C128.27 96.3239 128.483 96.3604 128.648 96.3665Z" fill="#455A64"/>
<path d="M163.188 139.686C163.188 122.091 150.834 100.72 135.595 91.8976C127.984 87.5016 121.098 87.0876 116.111 89.9614L107.776 94.7713C102.796 97.6573 99.7089 103.825 99.7089 112.617C99.7089 130.213 112.063 151.583 127.296 160.406C134.907 164.796 141.793 165.216 146.779 162.342L155.108 157.52C160.101 154.652 163.188 148.478 163.188 139.686Z" fill="#FFAEA3"/>
<path opacity="0.1" d="M146.807 162.336C157.582 156.115 157.582 135.943 146.806 117.279C136.031 98.6153 118.561 88.5284 107.786 94.7492C97.0111 100.97 97.0116 121.143 107.787 139.807C118.563 158.47 136.032 168.557 146.807 162.336Z" fill="black"/>
<path d="M154.901 144.478C154.901 126.882 142.548 105.512 127.308 96.6892C119.685 92.2872 112.787 91.8793 107.794 94.7713L103.666 97.152C98.6616 100.032 95.5686 106.212 95.5686 115.016C95.5686 132.612 107.922 153.982 123.156 162.805C130.779 167.201 137.677 167.615 142.67 164.729L146.822 162.33C151.808 159.45 154.901 153.258 154.901 144.478Z" fill="#F0F0F0"/>
<path d="M123.156 99.0698C138.377 107.868 150.749 129.263 150.749 146.859C150.749 164.455 138.395 171.584 123.156 162.786C107.916 153.988 95.5686 132.593 95.5686 114.997C95.5686 97.4016 107.922 90.2902 123.156 99.0698Z" fill="#E0E0E0"/>
<path d="M152.777 146.877C152.777 128.66 139.942 106.431 124.16 97.3224C119.515 94.6374 115.028 93.2796 110.814 93.2796C107.934 93.2397 105.095 93.9735 102.595 95.4045C101.219 96.2082 95.6539 99.3925 94.2413 100.214C88.579 103.533 85.2059 110.51 85.2059 119.813C85.2059 138.03 98.0406 160.26 113.822 169.368C118.468 172.053 122.955 173.411 127.168 173.411C130.068 173.451 132.925 172.706 135.436 171.256C136.788 170.458 142.286 167.316 143.686 166.506C149.385 163.2 152.777 156.211 152.777 146.877Z" fill="#455A64"/>
<path d="M127.168 173.411C122.961 173.411 118.468 172.053 113.822 169.368C98.0467 160.235 85.2059 138.03 85.2059 119.814C85.2059 106.601 92.0007 98.0713 102.516 98.0713C106.729 98.0713 111.216 99.4291 115.862 102.114C131.637 111.247 144.478 133.452 144.478 151.669C144.478 164.875 137.683 173.411 127.168 173.411Z" fill="#37474F"/>
<path d="M121 154.555C118.629 154.483 116.318 153.786 114.303 152.533C106.425 147.985 100.013 136.886 100.013 127.783C100.013 121.19 103.411 116.928 108.659 116.928C111.019 117.004 113.318 117.699 115.326 118.943C123.205 123.497 129.616 134.596 129.616 143.699C129.646 150.293 126.249 154.555 121 154.555Z" fill="#263238"/>
<path d="M85.8087 185.527C85.8087 167.31 72.9741 145.081 57.1926 135.966C52.547 133.287 48.0598 131.93 43.8526 131.93C40.9718 131.888 38.1329 132.622 35.6331 134.055C34.2571 134.858 28.6861 138.043 27.2796 138.865C21.6112 142.183 18.2381 149.16 18.2381 158.457C18.2381 176.674 31.0728 198.91 46.8543 208.018C51.4998 210.703 55.9871 212.061 60.1943 212.061C63.0987 212.096 65.9582 211.342 68.4686 209.881C69.8263 209.084 75.3243 205.942 76.7185 205.132C82.4174 201.85 85.8087 194.861 85.8087 185.527Z" fill="#455A64"/>
<path d="M60.2003 212.061C55.9931 212.061 51.5059 210.703 46.8603 208.018C31.0788 198.885 18.2442 176.674 18.2442 158.457C18.2442 145.251 25.039 136.721 35.56 136.721C39.7672 136.721 44.2544 138.079 48.9 140.758C64.6754 149.891 77.5161 172.102 77.5161 190.319C77.51 203.525 70.7152 212.061 60.2003 212.061Z" fill="#37474F"/>
<path d="M75.4704 190.319C75.4704 172.723 63.1168 151.352 47.8771 142.53C40.2543 138.128 33.356 137.714 28.3938 140.606L24.2658 142.993C19.2671 145.872 16.168 152.046 16.168 160.85C16.168 178.446 28.5217 199.817 43.7613 208.639C51.3841 213.041 58.2764 213.449 63.2446 210.569L67.397 208.17C72.3835 205.284 75.4704 199.111 75.4704 190.319Z" fill="#F0F0F0"/>
<path d="M43.7308 144.923C58.9522 153.721 71.3241 175.116 71.3241 192.712C71.3241 210.307 58.9704 217.437 43.7308 208.664C28.4912 199.89 16.1376 178.47 16.1376 160.875C16.1376 143.279 28.4912 136.125 43.7308 144.923Z" fill="#E0E0E0"/>
<path d="M71.3241 192.712C71.3241 175.116 58.9704 153.745 43.7308 144.923C36.1202 140.527 29.234 140.113 24.2475 142.986L15.9123 147.778C10.9258 150.664 7.8389 156.838 7.8389 165.624C7.8389 183.22 20.1925 204.59 35.4322 213.413C43.0367 217.809 49.9229 218.223 54.9155 215.349L63.2385 210.545C68.2311 207.683 71.3241 201.509 71.3241 192.712Z" fill="#FFAEA3"/>
<path opacity="0.1" d="M35.4322 149.714C50.6535 158.512 63.0193 179.907 63.0193 197.503C63.0193 215.099 50.6718 222.229 35.4322 213.431C20.1925 204.633 7.8389 183.238 7.8389 165.642C7.8389 148.046 20.1925 140.916 35.4322 149.714Z" fill="black"/>
<path d="M15.62 159.73C15.3948 159.815 15.1695 159.907 14.9503 160.01C14.7311 160.114 14.6093 160.193 14.445 160.29C14.2806 160.388 14.0309 160.528 13.8361 160.655C13.6413 160.783 13.5134 160.881 13.3551 161.002C13.1968 161.124 12.9837 161.289 12.801 161.447L12.3627 161.855C12.1922 162.025 12.0278 162.202 11.8634 162.385C11.699 162.567 11.5955 162.695 11.4677 162.853C11.3398 163.012 11.1693 163.255 11.0232 163.462C10.8771 163.669 10.7979 163.797 10.6944 163.968L10.6214 164.089C10.5057 164.284 10.3961 164.479 10.2865 164.698L10.1952 164.881C10.1099 165.045 10.0247 165.21 9.94552 165.38C9.86637 165.551 9.81766 165.685 9.75678 165.837C9.69589 165.989 9.67154 166.032 9.63501 166.129L9.52541 166.409C9.45235 166.604 9.38538 166.805 9.3184 167.018C9.25143 167.231 9.20881 167.371 9.1601 167.548C9.06268 167.868 8.97745 168.197 8.90438 168.534C8.84959 168.765 8.80088 168.997 8.75826 169.234L8.6852 169.612C8.6852 169.752 8.63649 169.892 8.61822 170.032C8.56342 170.379 8.52689 170.732 8.49036 171.091C8.49036 171.262 8.44774 171.426 8.43557 171.603C8.43557 171.663 8.43557 171.73 8.43557 171.797C8.39295 172.376 8.36859 172.973 8.36859 173.594C8.38621 176.073 8.68235 178.542 9.25143 180.955C11.5285 190.928 18.0067 201.217 25.934 207.105C26.8642 207.802 27.8317 208.449 28.8322 209.041L29.2462 209.266L29.9403 209.644L30.47 209.906L31.0423 210.174C31.2371 210.265 31.4259 210.344 31.6512 210.423C31.8764 210.502 31.986 210.569 32.1565 210.63L32.7654 210.855L33.2403 211.02L33.8491 211.196L34.3606 211.336L34.8842 211.464C35.1155 211.519 35.3469 211.562 35.5783 211.604L35.8949 211.665L36.1689 211.696L40.2299 209.272C37.6454 208.866 35.1642 207.963 32.9237 206.612C21.6173 200.085 12.454 184.224 12.454 171.164C12.454 165.879 13.964 161.873 16.509 159.401C16.375 159.438 16.235 159.468 16.1071 159.511L15.62 159.73Z" fill="#263238"/>
<path d="M19.2732 155.322C18.642 155.543 18.0309 155.818 17.4466 156.144L13.3125 158.531C15.1347 157.509 17.1845 156.963 19.2732 156.941V155.322Z" fill="#37474F"/>
<path d="M35.7974 211.641L35.4808 211.58C35.2495 211.537 35.0242 211.495 34.7868 211.44C34.5493 211.385 34.4397 211.355 34.2631 211.312L33.9161 211.227L33.7517 211.172L33.1428 210.995L32.6558 210.831L32.0469 210.606C31.8764 210.545 31.712 210.472 31.5416 210.399L30.9327 210.155L30.3604 209.881L29.8307 209.619L29.1244 209.236L28.7287 209.023C27.763 208.451 26.8281 207.829 25.9279 207.16C23.3503 205.239 21.0137 203.015 18.9687 200.535C17.2102 198.407 15.6338 196.134 14.2562 193.741C11.9576 189.805 10.2469 185.555 9.17836 181.125C9.17836 181.058 9.17836 180.991 9.13574 180.918C8.59041 178.508 8.31473 176.046 8.31379 173.575C8.31379 173.003 8.31378 172.449 8.37467 171.901C8.37467 171.822 8.37467 171.737 8.37467 171.657C8.37188 171.603 8.37188 171.548 8.37467 171.493C8.4112 171.036 8.45991 170.592 8.52688 170.154L8.56342 169.873C8.56342 169.727 8.61821 169.587 8.64257 169.447C8.66692 169.307 8.72172 169.045 8.75825 168.838C8.79478 168.631 8.84349 168.412 8.89828 168.23C8.95308 168.047 9.02005 167.785 9.08094 167.566L9.154 167.322C9.15677 167.29 9.15677 167.257 9.154 167.225C9.21489 167.042 9.26968 166.866 9.33057 166.689C9.39146 166.513 9.48887 166.269 9.56803 166.08C9.64718 165.892 9.78112 165.551 9.90289 165.301C10.0247 165.051 10.0795 164.948 10.1708 164.771L10.2804 164.558C10.3778 164.382 10.4813 164.199 10.5848 164.028C10.6883 163.858 10.7857 163.718 10.8892 163.566L11.0232 163.359L11.3581 162.999L11.5407 162.768C11.6016 162.701 11.6503 162.628 11.7112 162.561C11.7721 162.494 11.9304 162.305 12.0461 162.178L12.1557 162.062L12.5879 161.63C12.6549 161.569 12.7341 161.52 12.801 161.459C12.9837 161.301 13.1663 161.155 13.3551 161.015C13.5438 160.875 13.6717 160.777 13.8361 160.668C14.0005 160.558 14.2379 160.418 14.4449 160.302C14.652 160.187 14.7798 160.107 14.9503 160.022C15.1208 159.937 15.3948 159.827 15.62 159.742L16.1558 159.529L16.5698 159.407L16.8377 159.346C17.0204 159.298 17.2031 159.249 17.3918 159.212C17.5805 159.176 17.9215 159.127 18.1955 159.097C18.3781 159.097 18.5547 159.042 18.7435 159.024C18.9322 159.005 19.0722 159.024 19.2427 159.024V156.978C17.1519 157.007 15.102 157.562 13.282 158.591V158.591C13.0202 158.738 12.7706 158.902 12.5271 159.066L12.3992 159.158C11.6856 159.664 11.0283 160.246 10.4387 160.893L10.2439 161.112C10.0673 161.313 9.89681 161.52 9.72633 161.721C9.67762 161.788 9.62891 161.861 9.57411 161.928C9.30013 162.305 9.03832 162.701 8.79478 163.146L8.53297 163.602C8.42338 163.803 8.31987 164.01 8.21637 164.211C8.11286 164.412 8.02154 164.631 7.92412 164.85C7.8267 165.07 7.74146 165.271 7.65622 165.496C7.52227 165.837 7.40051 166.184 7.28482 166.543C7.23003 166.713 7.18132 166.89 7.13261 167.067C7.04737 167.377 6.96213 167.675 6.88907 168.004L6.77947 168.473C6.68206 168.936 6.59682 169.411 6.52984 169.898C6.52984 170.013 6.52984 170.141 6.48722 170.257C6.43243 170.665 6.38981 171.079 6.35936 171.475L6.32283 171.931C6.29239 172.473 6.26804 173.021 6.26804 173.581C6.31116 177.186 6.8814 180.766 7.96065 184.206C8.5177 186.029 9.18044 187.818 9.94551 189.564C10.3311 190.445 10.737 191.319 11.1632 192.188C12.4778 194.789 14.0073 197.276 15.7357 199.622C19.1636 204.28 23.2977 208.231 27.7423 210.801C29.5096 211.846 31.4019 212.664 33.3742 213.236L36.0288 211.708L35.7974 211.641Z" fill="#455A64"/>
<path d="M54.1057 192.352C54.1057 180.449 45.7461 165.965 35.4322 160.01C30.2569 157.027 25.5809 156.753 22.2018 158.725L13.2333 163.882C9.83594 165.825 7.75366 170.02 7.75366 175.986C7.75366 187.896 16.1132 202.374 26.4272 208.329C31.5903 211.312 36.2663 211.592 39.6454 209.626L48.6626 204.438C52.0173 202.484 54.1057 198.313 54.1057 192.352Z" fill="#FFD5CF"/>
<path opacity="0.3" d="M54.1057 192.352C54.1057 180.449 45.7461 165.965 35.4322 160.01C30.2569 157.027 25.5809 156.753 22.2018 158.725L13.2333 163.882C9.83594 165.825 7.75366 170.02 7.75366 175.986C7.75366 187.896 16.1132 202.374 26.4272 208.329C31.5903 211.312 36.2663 211.592 39.6454 209.626L48.6626 204.438C52.0173 202.484 54.1057 198.313 54.1057 192.352Z" fill="black"/>
<path d="M39.6092 209.634C46.9011 205.425 46.9011 191.773 39.6093 179.143C32.3175 166.514 20.4951 159.688 13.2032 163.898C5.91126 168.108 5.91118 181.759 13.203 194.389C20.4948 207.019 32.3172 213.844 39.6092 209.634Z" fill="#FFD5CF"/>
<path d="M36.1064 205.87C41.7906 202.603 41.8108 191.972 36.1515 182.125C30.4922 172.278 21.2966 166.943 15.6124 170.21C9.92819 173.477 9.908 184.108 15.5673 193.955C21.2265 203.802 30.4222 209.137 36.1064 205.87Z" fill="#263238"/>
<path d="M33.6056 179.031L25.0329 187.591L14.7981 169.855C17.4101 168.333 21.0388 168.552 25.0329 170.86C28.4339 172.949 31.3552 175.734 33.6056 179.031V179.031Z" fill="#455A64"/>
<path d="M39.5298 195.969C39.5298 200.584 37.9041 203.835 35.2678 205.333L25.033 187.591L33.6056 179.031C37.1918 184.151 39.5298 190.398 39.5298 195.969Z" fill="#37474F"/>
<path d="M35.2799 205.333C32.668 206.837 29.0148 206.642 25.0329 204.335C21.6261 202.252 18.7067 199.461 16.4724 196.152L25.0329 187.591L35.2799 205.333Z" fill="#455A64"/>
<path d="M25.0329 187.591L16.4724 196.152C12.8741 191.037 10.5483 184.772 10.5483 179.238C10.5483 174.61 12.1739 171.371 14.8103 169.855L25.0329 187.591Z" fill="#37474F"/>
<path d="M36.8447 211.763H36.9299C37.2465 211.763 37.5388 211.799 37.8676 211.799H38.0198C38.4764 211.799 38.9209 211.769 39.3593 211.72H39.408C39.7809 211.675 40.151 211.608 40.5161 211.519C40.6683 211.483 40.8266 211.452 40.9788 211.409C41.265 211.33 41.5511 211.233 41.8251 211.129C42.0991 211.026 42.2513 210.959 42.434 210.868L42.7262 210.721C43.6229 210.273 44.4445 209.687 45.1616 208.986C43.5402 209.431 41.8435 209.531 40.1812 209.278L36.0227 211.671C36.3211 211.708 36.589 211.744 36.8447 211.763Z" fill="#263238"/>
<path d="M33.977 160.29C34.084 161.886 34.773 163.387 35.9131 164.509C44.8024 172.68 51.3111 185.959 51.3111 197.199C51.3111 205.388 47.8771 211.202 42.2635 213.157C42.9812 212.927 43.6697 212.614 44.3153 212.225L48.4494 209.839C52.8454 207.306 55.4634 201.924 55.4634 194.806C55.4634 183.567 48.9548 170.287 40.0594 162.117C38.9291 160.99 38.2493 159.49 38.1476 157.897V141.33L34.0013 143.729L31.9556 142.548L34.0013 143.729L33.977 160.29Z" fill="#37474F"/>
<path d="M35.9131 164.509C34.773 163.387 34.084 161.886 33.977 160.29V143.729L31.9312 142.548V161.283C31.9366 161.53 31.9651 161.777 32.0165 162.019L32.053 162.208C32.1112 162.468 32.1865 162.725 32.2783 162.975C32.4255 163.362 32.6068 163.735 32.8202 164.089C32.875 164.181 32.9298 164.26 32.9906 164.345C33.1489 164.596 33.326 164.834 33.5204 165.057C33.6446 165.195 33.7767 165.325 33.9161 165.447V165.447C34.4093 165.873 34.8903 166.324 35.3652 166.787L35.7427 167.158C36.1567 167.572 36.5646 167.992 36.9604 168.424L37.143 168.619C37.5936 169.112 38.032 169.618 38.4642 170.135C38.5799 170.269 38.6895 170.409 38.7991 170.543C39.1583 170.982 39.5115 171.426 39.8524 171.883C39.9377 171.992 40.0229 172.096 40.1021 172.205C40.51 172.753 40.8997 173.307 41.3198 173.874L41.5877 174.282C41.9043 174.75 42.1965 175.225 42.507 175.706L42.7628 176.126C43.122 176.735 43.4629 177.308 43.7978 177.904L43.9865 178.27C44.2605 178.775 44.5284 179.286 44.7841 179.804L45.0216 180.279C45.3199 180.888 45.6305 181.496 45.874 182.148C45.9105 182.227 45.9471 182.312 45.9775 182.392C46.217 182.952 46.4423 183.512 46.6533 184.072C46.7203 184.242 46.7873 184.413 46.8482 184.583C47.0795 185.223 47.3109 185.862 47.5118 186.507C47.7127 187.153 47.8954 187.798 48.072 188.444C48.1085 188.577 48.145 188.717 48.1755 188.858C48.3419 189.483 48.488 190.11 48.6138 190.739L48.6686 191.055C48.7843 191.628 48.8756 192.2 48.9609 192.772C48.9609 192.876 48.9609 192.979 49.0035 193.083C49.0887 193.692 49.1496 194.301 49.1983 194.91C49.1983 195.043 49.1983 195.177 49.1983 195.311C49.2349 195.92 49.2653 196.56 49.2653 197.174C49.2653 200.828 48.5408 203.902 47.2439 206.259C46.9658 206.768 46.6503 207.257 46.3002 207.72C46.1297 207.945 45.9531 208.164 45.7705 208.371C45.5878 208.578 45.3991 208.773 45.2043 208.98C44.4872 209.681 43.6656 210.267 42.7688 210.715L42.4766 210.862C42.2696 210.953 42.0626 211.044 41.8677 211.123C41.6729 211.202 41.3502 211.312 41.0884 211.385H41.0214C40.8692 211.428 40.7109 211.458 40.5587 211.495L40.2847 211.562C40.0107 211.616 39.7307 211.665 39.4506 211.696H39.3653C38.9207 211.747 38.4735 211.773 38.0259 211.775H37.6788C37.4353 211.775 37.1857 211.775 36.936 211.732H36.8447C36.589 211.732 36.3272 211.677 36.0714 211.641L33.4168 213.169C34.8897 213.594 36.4138 213.815 37.9467 213.827C38.1537 213.827 38.3546 213.827 38.5556 213.827C38.7565 213.827 39.1096 213.827 39.3653 213.784L39.8342 213.717C40.1325 213.674 40.443 213.632 40.6987 213.577L41.1249 213.48L41.2954 213.431C41.5572 213.364 41.819 213.297 42.0747 213.218L42.2574 213.157C47.871 211.227 51.305 205.388 51.305 197.199C51.3111 185.959 44.8024 172.68 35.9131 164.509Z" fill="#455A64"/>
<path d="M24.6311 159.389L24.7528 159.346L24.8929 159.273L29.0148 156.911C29.282 156.741 29.4982 156.502 29.6408 156.219C29.7833 155.936 29.8468 155.62 29.8246 155.304V136.539L25.6783 138.938V157.666C25.7087 158.027 25.6237 158.388 25.4355 158.698C25.2473 159.008 24.9656 159.25 24.6311 159.389V159.389Z" fill="#37474F"/>
<path d="M19.6628 156.911C20.6598 156.912 21.6544 157.006 22.634 157.191C22.7546 157.223 22.8809 157.225 23.0027 157.199C23.1246 157.173 23.2386 157.119 23.3357 157.041C23.4328 156.963 23.5102 156.863 23.5617 156.749C23.6133 156.636 23.6375 156.512 23.6325 156.387V154.524C22.1427 154.535 20.6659 154.803 19.2671 155.316V156.935C19.401 156.911 19.5289 156.911 19.6628 156.911Z" fill="#37474F"/>
<path d="M20.1865 158.969C20.6675 158.969 21.1606 159.036 21.6599 159.109C22.1477 159.181 22.6313 159.279 23.109 159.401C23.1373 159.398 23.1659 159.398 23.1942 159.401H23.249C23.4066 159.442 23.5676 159.468 23.73 159.48H23.7726C23.9044 159.49 24.0366 159.49 24.1684 159.48H24.2414C24.3661 159.463 24.4885 159.432 24.6067 159.389V159.389C24.9413 159.25 25.2229 159.008 25.4112 158.698C25.5994 158.388 25.6844 158.027 25.654 157.666V138.938L23.6082 137.72V156.369C23.6132 156.494 23.589 156.618 23.5374 156.731C23.4859 156.844 23.4084 156.944 23.3114 157.022C23.2143 157.101 23.1002 157.155 22.9784 157.181C22.8565 157.207 22.7303 157.204 22.6097 157.173C21.6301 156.987 20.6354 156.894 19.6385 156.893C19.5045 156.893 19.3767 156.893 19.2427 156.893V158.938H19.675C19.882 158.975 20.0221 158.963 20.1865 158.969Z" fill="#455A64"/>
<path d="M26.9752 127.503C26.2202 127.071 25.1851 127.132 24.0405 127.796C22.8275 128.581 21.818 129.642 21.0951 130.893C20.3722 132.144 19.9565 133.549 19.882 134.992C19.882 136.326 20.3508 137.263 21.0997 137.689L37.6849 147.261L43.5299 137.087L26.9752 127.503Z" fill="#FFD5CF"/>
<path opacity="0.3" d="M26.9752 127.503C26.2202 127.071 25.1851 127.132 24.0405 127.796C22.8275 128.581 21.818 129.642 21.0951 130.893C20.3722 132.144 19.9565 133.549 19.882 134.992C19.882 136.326 20.3508 137.263 21.0997 137.689L37.6849 147.261L43.5299 137.087L26.9752 127.503Z" fill="black"/>
<path opacity="0.3" d="M20.3874 132.465C20.0728 133.272 19.9017 134.127 19.882 134.992C19.882 136.326 20.3508 137.263 21.0997 137.689L37.6849 147.261L39.7489 143.668L20.3874 132.465Z" fill="black"/>
<path d="M36.4855 144.563C36.5611 143.123 36.9768 141.721 37.6986 140.472C38.4203 139.224 39.4276 138.163 40.6379 137.379C41.7703 136.721 42.7993 136.654 43.5482 137.074C44.2971 137.495 44.7659 138.438 44.7659 139.772C44.688 141.212 44.272 142.613 43.5517 143.862C42.8313 145.112 41.8268 146.174 40.6196 146.962C39.4689 147.62 38.4338 147.687 37.6849 147.248C36.936 146.81 36.4855 145.891 36.4855 144.563Z" fill="#FFD5CF"/>
<path opacity="0.2" d="M36.4855 144.563C36.5611 143.123 36.9768 141.721 37.6986 140.472C38.4203 139.224 39.4276 138.163 40.6379 137.379C41.7703 136.721 42.7993 136.654 43.5482 137.074C44.2971 137.495 44.7659 138.438 44.7659 139.772C44.688 141.212 44.272 142.613 43.5517 143.862C42.8313 145.112 41.8268 146.174 40.6196 146.962C39.4689 147.62 38.4338 147.687 37.6849 147.248C36.936 146.81 36.4855 145.891 36.4855 144.563Z" fill="black"/>
<path d="M38.2816 143.516C38.3259 142.699 38.5624 141.904 38.9718 141.195C39.3812 140.486 39.952 139.884 40.6378 139.437C40.8629 139.237 41.1453 139.113 41.4447 139.083C41.7442 139.053 42.0455 139.118 42.3058 139.269C42.5661 139.42 42.7722 139.65 42.8947 139.925C43.0171 140.2 43.0498 140.506 42.988 140.801C42.9434 141.616 42.7074 142.41 42.2991 143.118C41.8908 143.825 41.3217 144.427 40.6378 144.874C40.4122 145.071 40.1306 145.193 39.8323 145.223C39.534 145.252 39.2339 145.187 38.9742 145.038C38.7145 144.888 38.5081 144.661 38.3839 144.388C38.2597 144.115 38.2239 143.81 38.2816 143.516V143.516Z" fill="#37474F"/>
<path d="M41.886 140.192C41.8977 139.825 41.8115 139.461 41.6364 139.139C41.2832 139.159 40.9404 139.266 40.6379 139.449C39.952 139.896 39.3813 140.498 38.9719 141.207C38.5625 141.916 38.326 142.711 38.2816 143.528C38.273 143.895 38.359 144.258 38.5312 144.582C38.8864 144.561 39.2312 144.455 39.5358 144.271C40.2205 143.824 40.7901 143.221 41.1984 142.512C41.6067 141.804 41.8423 141.009 41.886 140.192V140.192Z" fill="#263238"/>
<path d="M134.858 65.2176C134.109 64.7853 133.068 64.8462 131.923 65.5098C130.715 66.2966 129.709 67.3571 128.988 68.6054C128.266 69.8538 127.849 71.2546 127.771 72.6943C127.771 74.0277 128.246 74.9592 128.989 75.3915L145.568 84.9627L151.419 74.7887L134.858 65.2176Z" fill="#FFD5CF"/>
<path opacity="0.3" d="M134.858 65.2176C134.109 64.7853 133.068 64.8462 131.923 65.5098C130.715 66.2966 129.709 67.3571 128.988 68.6054C128.266 69.8538 127.849 71.2546 127.771 72.6943C127.771 74.0277 128.246 74.9592 128.989 75.3915L145.568 84.9627L151.419 74.7887L134.858 65.2176Z" fill="black"/>
<path opacity="0.3" d="M128.258 70.1737C127.95 70.9794 127.781 71.8318 127.759 72.6943C127.759 74.0277 128.234 74.9592 128.976 75.3915L145.556 84.9627L147.626 81.3644L128.258 70.1737Z" fill="black"/>
<path d="M144.374 82.2777C144.452 80.8377 144.868 79.4363 145.589 78.1871C146.309 76.9378 147.313 75.8758 148.521 75.0871C149.659 74.4356 150.688 74.3686 151.437 74.7888C152.186 75.2089 152.655 76.1526 152.655 77.486C152.579 78.9263 152.163 80.3283 151.442 81.5771C150.72 82.8258 149.713 83.8859 148.502 84.6705C147.358 85.3341 146.323 85.395 145.568 84.9627C144.813 84.5304 144.374 83.5989 144.374 82.2777Z" fill="#FFD5CF"/>
<path opacity="0.2" d="M144.374 82.2777C144.452 80.8377 144.868 79.4363 145.589 78.1871C146.309 76.9378 147.313 75.8758 148.521 75.0871C149.659 74.4356 150.688 74.3686 151.437 74.7888C152.186 75.2089 152.655 76.1526 152.655 77.486C152.579 78.9263 152.163 80.3283 151.442 81.5771C150.72 82.8258 149.713 83.8859 148.502 84.6705C147.358 85.3341 146.323 85.395 145.568 84.9627C144.813 84.5304 144.374 83.5989 144.374 82.2777Z" fill="black"/>
<path d="M146.17 81.2426C146.214 80.4258 146.45 79.6308 146.858 78.9221C147.266 78.2133 147.836 77.6108 148.521 77.1633C148.758 76.9929 149.035 76.8875 149.326 76.8576C149.617 76.8277 149.91 76.8743 150.177 76.9928C150.42 77.161 150.614 77.3917 150.737 77.6607C150.86 77.9296 150.909 78.2269 150.877 78.521C150.833 79.3386 150.597 80.1343 150.188 80.8432C149.778 81.5522 149.207 82.1542 148.521 82.6004C148.296 82.7993 148.014 82.9225 147.716 82.9526C147.417 82.9826 147.116 82.918 146.857 82.7679C146.597 82.6177 146.391 82.3897 146.267 82.1159C146.144 81.8422 146.11 81.5367 146.17 81.2426Z" fill="#37474F"/>
<path d="M149.775 77.9061C149.783 77.5394 149.697 77.1766 149.525 76.8528C149.17 76.873 148.825 76.9796 148.521 77.1633C147.835 77.6105 147.265 78.2128 146.855 78.9215C146.446 79.6302 146.209 80.4254 146.164 81.2426C146.155 81.6102 146.243 81.9738 146.42 82.2959C146.773 82.2755 147.116 82.1689 147.419 81.9854C148.104 81.5382 148.675 80.9359 149.084 80.2272C149.493 79.5185 149.73 78.7233 149.775 77.9061Z" fill="#263238"/>
<path d="M147.626 30.6347L129.725 20.2842C128.579 18.1004 127.204 16.0451 125.622 14.153C135.229 15.8273 142.828 21.648 147.626 30.6347Z" fill="#FFD5CF"/>
<path opacity="0.2" d="M147.626 30.6347L129.725 20.2842C128.579 18.1004 127.204 16.0451 125.622 14.153C135.229 15.8273 142.828 21.648 147.626 30.6347Z" fill="black"/>
<path d="M144.313 75.1906C145.224 70.3499 145.695 65.4367 145.72 60.5111C145.72 27.2129 122.346 13.7146 93.5107 30.3668C64.6754 47.0189 41.2954 87.5016 41.2954 120.8C41.2673 125.195 41.7412 129.578 42.7079 133.866L35.974 137.756C35.1357 133.415 34.7278 129.002 34.7563 124.581C34.7563 87.1059 61.071 41.5271 93.529 22.7926C125.987 4.05821 152.296 19.243 152.296 56.7241C152.285 61.6198 151.878 66.5066 151.078 71.3366L144.38 75.215" fill="#37474F"/>
<path d="M144.32 75.1906C145.226 70.3473 145.694 65.4323 145.72 60.505C145.72 38.5437 135.552 25.1915 120.349 23.4319C125.104 29.7762 127.832 38.8298 127.832 50.2215C127.803 55.1345 127.334 60.035 126.431 64.8644L144.32 75.1906Z" fill="#263238"/>
<path d="M133.999 18.0923C123.454 12.6126 109.201 13.7451 93.5107 22.8048C61.0466 41.5271 34.738 87.0998 34.738 124.587C34.7092 129.004 35.1171 133.413 35.9558 137.75L18.0981 127.436C17.2415 123.108 16.8193 118.704 16.8377 114.291C16.8377 76.8102 43.1463 31.2374 75.6104 12.4969C91.8242 3.13275 106.498 2.24991 117.134 8.38107C119.862 9.92755 129.902 15.7299 133.999 18.0923Z" fill="#455A64"/>
<path d="M26.8351 122.334C26.3373 122.316 25.8526 122.17 25.4287 121.908C24.5575 121.339 23.8317 120.574 23.3094 119.675C22.7871 118.775 22.4828 117.765 22.4209 116.727C22.4209 115.338 23.1394 114.443 24.2475 114.443C24.7449 114.459 25.2296 114.604 25.6539 114.864C26.5271 115.437 27.2538 116.208 27.7761 117.113C28.2984 118.018 28.6016 119.032 28.6617 120.075C28.6556 121.433 27.9371 122.334 26.8351 122.334Z" fill="#263238"/>
<path d="M136.654 14.494C131.455 11.7054 125.633 10.2848 119.734 10.3659C110.766 10.3659 101.201 13.2641 91.2945 18.9751C68.3711 32.2055 48.3703 58.4289 37.9589 86.0769L20.0708 75.7264C30.4822 48.0783 50.5135 21.855 73.4064 8.62461C83.3124 2.91356 92.8897 0.00323554 101.846 0.00323554C107.969 -0.0804784 114.005 1.46163 119.338 4.47222C122.169 6.14048 132.867 12.3021 136.654 14.494Z" fill="#FFD5CF"/>
<path opacity="0.6" d="M136.654 14.494C131.455 11.7054 125.633 10.2848 119.734 10.3659C110.766 10.3659 101.201 13.2641 91.2945 18.9751C68.3711 32.2055 48.3703 58.4289 37.9589 86.0769L20.0708 75.7264C30.4822 48.0783 50.5135 21.855 73.4064 8.62461C83.3124 2.91356 92.8897 0.00323554 101.846 0.00323554C107.969 -0.0804784 114.005 1.46163 119.338 4.47222C122.169 6.14048 132.867 12.3021 136.654 14.494Z" fill="#FFAEA3"/>
<path d="M147.62 30.6286C141.884 19.9189 132.149 13.6659 119.734 13.6659C111.35 13.6659 102.333 16.4119 92.9444 21.8367C70.4777 34.8053 50.8909 60.6086 40.8205 87.733L37.9589 86.0769C48.3703 58.4289 68.3711 32.2055 91.2945 18.9751C101.201 13.2641 110.778 10.3659 119.734 10.3659C132.8 10.3659 143.181 16.5397 149.568 27.2616L147.62 30.6286Z" fill="#FFD5CF"/>
</svg>
